<?xml version="1.0" standalone="no"?>
<!DOCTYPE svg PUBLIC "-//W3C//DTD SVG 20010904//EN"
 "http://www.w3.org/TR/2001/REC-SVG-20010904/DTD/svg10.dtd">
<svg version="1.0" xmlns="http://www.w3.org/2000/svg"
 width="2048.000000pt" height="2048.000000pt" viewBox="0 0 2048.000000 2048.000000"
 preserveAspectRatio="xMidYMid meet">

<g transform="translate(0.000000,2048.000000) scale(0.100000,-0.100000)"
fill="#000000" stroke="none">
<path d="M0 20095 l0 -385 40 0 c29 0 40 -4 40 -15 0 -11 11 -15 40 -15 22 0
40 -4 40 -10 0 -5 18 -10 40 -10 29 0 40 -4 40 -15 0 -11 11 -15 40 -15 31 0
40 -4 40 -17 1 -13 5 -10 16 10 18 34 31 34 46 2 9 -21 18 -25 55 -25 39 0 43
2 43 25 0 25 1 25 80 25 l80 0 0 30 c0 28 2 30 40 30 36 0 40 3 40 25 0 23 4
25 40 25 29 0 40 -4 40 -15 0 -11 11 -15 40 -15 29 0 40 4 40 15 0 11 -11 15
-40 15 l-40 0 0 40 0 40 40 0 c29 0 40 -4 40 -15 0 -11 11 -15 40 -15 29 0 40
4 40 15 0 8 -7 15 -15 15 -11 0 -15 11 -15 40 0 29 4 40 15 40 8 0 15 7 15 15
0 11 11 15 40 15 38 0 40 -2 40 -30 l0 -30 80 0 c64 0 80 3 80 15 0 11 -11 15
-40 15 -29 0 -40 4 -40 15 0 12 13 15 59 15 32 0 86 3 120 6 43 5 61 3 61 -5
0 -6 -17 -11 -40 -11 -22 0 -40 -4 -40 -10 0 -5 18 -10 40 -10 22 0 40 5 40
10 0 6 18 10 40 10 36 0 40 -2 40 -25 0 -22 4 -25 40 -25 22 0 40 -5 40 -11 0
-7 30 -10 88 -9 92 3 169 -7 178 -21 7 -12 101 -11 109 1 11 18 25 10 25 -15
0 -22 4 -25 40 -25 22 0 40 -4 40 -10 0 -14 67 -13 72 1 3 8 16 6 43 -5 22
-10 41 -13 44 -7 6 9 94 -8 107 -22 4 -4 36 -7 71 -7 60 0 63 -1 63 -24 0 -21
5 -24 61 -30 34 -3 81 -6 105 -6 23 0 46 -4 49 -10 3 -5 28 -10 56 -10 37 0
49 -4 49 -15 0 -11 11 -15 40 -15 22 0 40 -4 40 -10 0 -5 18 -10 40 -10 22 0
40 5 40 10 0 6 18 10 40 10 22 0 40 -4 40 -10 0 -5 18 -10 40 -10 29 0 40 -4
40 -15 0 -12 16 -15 80 -15 44 0 80 -4 80 -8 0 -14 79 -34 124 -31 31 2 51 -3
75 -21 22 -15 35 -19 40 -12 4 7 12 8 21 2 8 -6 41 -10 73 -10 44 0 62 -5 77
-20 11 -11 28 -20 37 -20 9 0 42 -8 72 -19 31 -10 76 -24 101 -31 70 -19 100
-32 100 -41 0 -5 10 -9 23 -9 24 0 92 -22 103 -33 4 -4 18 -7 30 -7 12 0 30
-7 39 -16 9 -10 33 -19 52 -21 20 -2 57 -12 82 -23 25 -10 80 -28 121 -41 41
-12 80 -25 85 -29 6 -4 44 -17 85 -29 41 -13 107 -34 145 -47 39 -14 94 -32
123 -41 28 -9 52 -20 52 -24 0 -5 10 -9 23 -9 12 0 31 -6 42 -14 11 -7 27 -13
35 -14 25 -1 155 -53 158 -63 2 -5 7 -7 12 -4 4 2 52 -11 106 -31 55 -19 119
-43 144 -51 25 -9 50 -19 55 -23 6 -4 27 -13 48 -19 20 -7 37 -16 37 -21 0 -4
8 -6 19 -3 10 2 24 -1 31 -9 8 -8 30 -12 63 -9 46 3 49 2 45 -17 -4 -14 -2
-19 7 -16 7 3 16 1 20 -5 3 -6 23 -11 43 -11 50 0 114 -19 106 -31 -3 -6 4 -9
18 -7 22 2 157 -55 168 -72 3 -4 25 -10 50 -14 60 -8 65 -9 130 -34 8 -3 19
-4 24 -3 4 1 18 -4 30 -12 11 -8 35 -14 53 -15 18 0 47 -7 65 -16 18 -8 73
-27 123 -42 49 -14 96 -30 105 -35 18 -10 73 -34 185 -80 44 -18 102 -45 128
-61 26 -15 50 -28 53 -28 3 0 44 -18 91 -41 47 -22 95 -42 107 -44 21 -2 59
-19 126 -55 19 -11 43 -19 52 -20 9 0 20 -4 23 -10 3 -5 14 -10 23 -10 10 0
72 -23 137 -50 66 -28 129 -54 140 -59 11 -4 36 -14 55 -21 76 -27 97 -36 120
-50 14 -9 50 -24 80 -34 30 -11 60 -22 65 -26 6 -4 28 -13 50 -20 22 -7 67
-25 100 -40 33 -16 72 -32 88 -35 15 -4 27 -11 27 -16 0 -5 11 -9 25 -9 14 0
25 -5 25 -10 0 -6 3 -9 8 -9 16 3 72 -14 72 -22 0 -5 18 -12 40 -15 22 -4 40
-9 40 -13 0 -6 28 -15 113 -38 9 -2 17 -8 17 -13 0 -4 15 -11 34 -14 19 -4 36
-11 38 -16 2 -5 21 -10 43 -12 22 -2 43 -7 46 -12 4 -5 12 -5 18 -2 14 9 15
66 1 66 -5 0 -10 7 -10 15 0 8 5 15 10 15 6 0 10 7 10 15 0 11 11 15 40 15 22
0 40 5 40 10 0 6 18 10 40 10 36 0 40 -2 40 -25 0 -25 1 -25 80 -25 l80 0 0
40 c0 35 3 40 24 40 13 0 29 7 36 15 8 9 30 15 56 15 24 0 44 4 44 10 0 5 37
10 82 12 54 2 83 7 86 16 2 8 -10 12 -42 12 -34 0 -46 4 -46 15 0 12 16 15 80
15 79 0 80 0 80 25 0 23 4 25 40 25 l40 0 0 -40 0 -40 40 0 c36 0 40 3 40 25
0 23 4 25 40 25 29 0 40 4 40 15 0 11 11 15 40 15 l40 0 0 40 c0 30 -4 40 -16
40 -14 0 -15 2 -3 17 13 15 14 15 17 0 5 -23 82 -24 82 -2 0 11 11 15 40 15
22 0 40 5 40 10 0 6 33 10 80 10 l80 0 0 30 c0 28 2 30 40 30 22 0 40 5 40 10
0 6 18 10 40 10 29 0 40 4 40 15 0 11 11 15 40 15 29 0 40 -4 40 -15 0 -11 11
-15 40 -15 38 0 40 2 40 30 0 28 2 30 40 30 29 0 40 -4 40 -15 0 -11 11 -15
40 -15 36 0 40 3 40 25 0 23 4 25 40 25 29 0 40 4 40 15 0 13 20 15 120 15
100 0 120 3 120 15 0 12 16 15 80 15 64 0 80 -3 80 -15 0 -11 11 -15 40 -15
36 0 40 3 40 25 l0 25 120 0 c73 0 120 -4 120 -10 0 -5 18 -10 40 -10 22 0 40
5 40 10 0 6 47 10 120 10 100 0 120 3 120 15 0 8 -7 15 -15 15 -8 0 -22 18
-31 40 -16 40 -29 50 -36 28 -3 -9 -13 -7 -33 7 -15 11 -35 25 -44 30 -45 28
-77 51 -91 64 -8 7 -29 20 -48 28 -43 18 -32 35 19 27 26 -4 39 -3 39 5 0 19
17 12 48 -18 20 -21 36 -28 50 -24 14 3 29 -3 44 -19 13 -13 32 -25 43 -26 46
-3 82 -10 106 -20 15 -6 30 -8 33 -5 8 8 76 -39 76 -53 0 -6 10 -9 24 -7 13 3
27 0 30 -6 4 -6 15 -11 25 -11 10 0 30 -9 44 -20 14 -11 39 -20 57 -20 21 0
29 -4 24 -12 -9 -15 22 -37 44 -31 10 2 26 -5 36 -16 11 -12 29 -21 41 -21 13
0 28 -7 35 -15 7 -9 20 -15 29 -14 31 3 38 -1 49 -26 12 -26 37 -33 45 -12 4
10 7 10 18 0 7 -7 23 -13 36 -13 14 0 23 -6 23 -15 0 -10 16 -16 50 -21 36 -5
51 -12 55 -25 7 -20 30 -25 40 -9 10 17 30 11 40 -12 8 -19 19 -23 70 -26 33
-2 61 -7 63 -13 2 -5 27 -9 56 -9 30 0 60 -6 72 -15 10 -8 33 -15 51 -15 17 0
34 -4 37 -9 13 -20 99 -51 141 -51 25 0 45 -4 45 -10 0 -5 -8 -10 -17 -10 -16
-1 -16 -2 1 -15 11 -8 41 -15 66 -15 35 0 52 -5 66 -21 14 -16 15 -23 6 -26
-15 -6 -16 -23 -1 -23 14 0 39 26 39 40 0 6 16 -2 37 -17 20 -15 41 -28 47
-28 6 0 28 -6 49 -14 21 -7 55 -11 76 -9 32 3 37 1 33 -14 -4 -15 2 -18 37
-18 30 0 41 -4 41 -15 0 -11 11 -15 40 -15 37 0 40 -2 40 -27 l1 -28 15 28
c18 34 31 34 46 2 6 -14 17 -25 25 -25 7 0 13 -4 13 -8 0 -5 6 -16 13 -26 12
-16 16 -17 36 -5 20 13 24 11 46 -13 13 -16 29 -28 35 -28 5 0 10 -7 10 -15 0
-11 11 -15 40 -15 22 0 40 -4 40 -10 0 -5 17 -10 38 -10 20 0 46 -7 56 -15 17
-13 18 -15 3 -15 -9 0 -17 -7 -17 -15 0 -11 11 -15 40 -15 35 0 40 -3 40 -23
0 -22 4 -24 53 -23 28 1 53 -3 55 -9 6 -17 35 -45 47 -45 7 0 18 -7 25 -15 7
-8 23 -15 36 -15 19 0 24 -5 24 -25 0 -23 4 -25 41 -25 40 0 41 1 37 29 -6 41
9 29 23 -19 13 -42 33 -51 53 -24 11 14 13 14 25 0 11 -14 11 -16 -3 -16 -24
0 -20 -15 15 -49 34 -34 49 -39 49 -16 0 11 11 15 40 15 29 0 40 -4 40 -15 0
-8 -7 -15 -16 -15 -14 0 -15 -2 -3 -17 13 -15 14 -15 17 0 2 10 7 17 12 17 11
0 70 -59 70 -71 0 -5 11 -9 24 -9 14 0 33 -10 43 -23 22 -28 84 -52 93 -37 5
7 11 6 19 -4 10 -12 9 -15 -6 -19 -10 -3 0 -5 21 -6 31 -1 46 -9 73 -36 19
-19 44 -35 56 -35 12 0 28 -9 34 -19 7 -11 24 -26 39 -33 17 -8 28 -22 29 -36
3 -34 19 -46 43 -31 24 15 44 3 65 -40 10 -22 20 -26 60 -29 42 -3 47 -5 47
-28 0 -19 5 -24 24 -24 13 0 29 -7 36 -15 8 -9 30 -15 56 -15 24 0 44 -4 44
-10 0 -5 18 -10 40 -10 28 0 40 -4 40 -14 0 -8 -5 -16 -11 -18 -7 -2 -9 -13
-4 -27 6 -19 9 -21 16 -10 8 11 14 8 34 -13 13 -16 29 -28 35 -28 5 0 10 -7
10 -15 0 -10 10 -15 34 -15 27 0 44 -10 86 -50 l52 -50 71 0 72 0 17 -40 c19
-47 32 -50 52 -12 8 15 15 21 16 13 0 -7 11 -22 25 -33 32 -25 32 -38 0 -38
-16 0 -25 -6 -25 -15 0 -11 11 -15 40 -15 36 0 40 -2 40 -25 0 -16 6 -25 15
-25 11 0 15 11 15 40 0 22 5 40 10 40 15 0 12 -78 -2 -83 -9 -3 -8 -10 6 -26
25 -28 36 -27 36 4 0 16 6 25 15 25 11 0 15 -11 15 -40 0 -36 3 -40 25 -40 20
0 25 -5 25 -25 0 -23 4 -25 44 -25 54 0 69 -17 64 -70 -2 -23 1 -40 7 -41 63
-6 65 -6 54 8 -7 7 -10 16 -7 19 3 3 15 -11 27 -31 11 -19 27 -38 36 -41 8 -4
15 -12 15 -20 0 -9 12 -14 35 -14 34 0 35 -1 35 -37 1 -36 1 -37 13 -15 13 22
14 22 30 4 19 -21 13 -32 -15 -32 -10 0 -18 -7 -18 -15 0 -11 11 -15 40 -15
36 0 40 -2 40 -25 0 -14 5 -25 10 -25 6 0 22 -12 35 -27 21 -24 26 -26 35 -13
9 13 14 11 35 -12 13 -16 29 -28 35 -28 5 0 10 -7 10 -15 0 -11 11 -15 40 -15
l40 0 0 -65 0 -65 40 0 40 0 0 -40 0 -40 80 0 80 0 0 -40 0 -40 80 0 80 0 0
-40 0 -40 54 0 c34 0 57 5 60 13 5 10 7 10 12 0 3 -7 12 -13 20 -13 10 0 14
-12 14 -40 l0 -40 40 0 40 0 0 -40 0 -40 80 0 80 0 0 40 c0 29 4 40 15 40 11
0 15 -11 15 -40 0 -36 3 -40 25 -40 20 0 25 -5 25 -25 0 -22 4 -25 40 -25 29
0 40 -4 40 -15 0 -12 -20 -15 -120 -15 -100 0 -120 -2 -120 -15 0 -11 11 -15
40 -15 36 0 40 -2 40 -25 0 -25 1 -25 80 -25 79 0 80 0 80 25 0 23 4 25 40 25
29 0 40 4 40 15 0 8 7 15 15 15 11 0 15 -11 15 -40 l0 -40 65 0 65 0 0 -40 0
-40 -40 0 -40 0 0 -55 0 -55 120 0 c100 0 120 3 120 15 0 12 -16 15 -80 15
-64 0 -80 3 -80 15 0 12 16 15 80 15 79 0 80 0 80 25 0 16 6 25 15 25 11 0 15
-11 15 -40 0 -36 3 -40 25 -40 16 0 25 6 25 16 0 14 3 14 15 4 9 -8 15 -30 15
-56 l0 -44 -95 0 c-78 0 -95 -3 -95 -15 0 -12 16 -15 80 -15 l80 0 0 -35 c0
-27 7 -42 27 -60 24 -21 26 -26 13 -35 -13 -9 -11 -14 13 -35 15 -13 27 -29
27 -35 0 -5 18 -10 40 -10 36 0 40 -2 40 -25 0 -23 4 -25 43 -25 58 -1 87 -26
87 -78 0 -23 6 -45 15 -52 12 -10 15 -10 15 4 0 24 19 20 42 -9 16 -21 28 -25
69 -25 48 0 49 -1 49 -30 0 -28 2 -30 40 -30 36 0 40 -2 40 -25 0 -20 5 -25
24 -25 13 0 29 -7 36 -15 8 -9 30 -15 56 -15 24 0 44 -4 44 -10 0 -5 18 -10
40 -10 29 0 40 -4 40 -15 0 -11 -12 -15 -45 -15 l-45 0 1 -42 c1 -24 3 -35 6
-25 6 23 83 25 83 2 0 -12 16 -15 80 -15 79 0 80 0 80 -25 0 -22 4 -25 40 -25
29 0 40 -4 40 -15 0 -11 11 -15 40 -15 36 0 40 3 40 25 0 14 4 25 9 25 5 0 18
-11 29 -25 22 -28 42 -33 42 -10 0 11 11 15 40 15 29 0 40 -4 40 -15 0 -11
-11 -15 -40 -15 l-40 0 0 -40 c0 -23 5 -40 11 -40 6 0 20 -11 31 -25 24 -30
38 -32 38 -5 0 26 27 80 40 80 16 0 40 -57 40 -95 0 -34 1 -35 39 -35 22 0 41
5 44 13 4 10 7 10 18 0 7 -7 23 -13 36 -13 14 0 23 -6 23 -15 0 -11 11 -15 40
-15 29 0 40 4 40 15 0 11 11 15 40 15 l40 0 0 -40 0 -40 40 0 c29 0 40 4 40
15 0 12 16 15 80 15 l80 0 0 3385 0 3385 -10240 0 -10240 0 0 -385z m11440
-1525 c0 -5 -18 -10 -40 -10 -22 0 -40 5 -40 10 0 6 18 10 40 10 22 0 40 -4
40 -10z m3550 -1454 c0 -2 -7 -6 -15 -10 -8 -3 -15 -1 -15 4 0 6 7 10 15 10 8
0 15 -2 15 -4z m4470 -3021 c10 -12 10 -15 -4 -15 -9 0 -16 7 -16 15 0 8 2 15
4 15 2 0 9 -7 16 -15z m565 -265 c-3 -5 -10 -10 -16 -10 -5 0 -9 5 -9 10 0 6
7 10 16 10 8 0 12 -4 9 -10z m55 -30 c0 -21 -15 -27 -25 -10 -7 12 2 30 16 30
5 0 9 -9 9 -20z"/>
<path d="M0 18767 l0 -614 80 -17 c44 -10 80 -20 80 -23 0 -3 -8 -12 -17 -19
-17 -13 -17 -13 0 -14 9 0 17 5 17 10 0 6 18 10 40 10 22 0 40 -4 40 -10 0 -5
18 -10 40 -10 22 0 40 -4 40 -9 0 -5 21 -11 48 -13 34 -3 50 0 60 12 11 13 13
13 26 -2 9 -12 27 -18 55 -18 23 0 52 -5 63 -11 12 -6 39 -13 62 -16 57 -5
100 -11 106 -13 3 -1 15 -1 28 0 16 1 25 -5 29 -18 4 -18 16 -21 91 -27 173
-13 310 -36 352 -59 14 -8 46 -17 73 -21 26 -4 47 -11 47 -15 0 -4 25 -10 55
-13 30 -3 60 -9 67 -13 7 -5 24 -10 38 -12 14 -2 50 -10 80 -18 96 -27 174
-43 206 -44 16 0 39 -7 50 -15 10 -8 30 -15 42 -15 13 0 36 -7 50 -15 15 -8
54 -22 87 -31 33 -9 83 -23 110 -31 28 -8 59 -16 70 -17 11 0 26 -5 32 -9 7
-4 35 -11 63 -14 28 -3 53 -10 56 -14 3 -5 16 -9 28 -9 13 0 43 -7 67 -16 24
-9 56 -16 72 -16 15 1 27 -3 27 -8 0 -5 13 -11 30 -15 16 -4 32 -11 35 -16 4
-5 26 -9 51 -9 24 0 44 -4 44 -10 0 -5 15 -10 34 -10 18 0 53 -7 76 -15 23 -8
59 -15 79 -15 20 -1 47 -7 61 -15 14 -8 35 -14 48 -15 12 0 22 -4 22 -10 0
-13 73 -26 77 -13 4 12 74 -5 84 -20 4 -5 11 -7 17 -3 5 3 15 -1 22 -9 10 -12
16 -13 26 -4 11 9 14 8 14 -5 0 -14 8 -17 38 -14 22 2 41 -2 47 -10 6 -7 40
-15 80 -17 38 -3 71 -9 74 -13 3 -5 24 -12 46 -16 53 -9 95 -26 95 -38 0 -7 5
-6 13 1 10 8 30 6 78 -9 35 -11 87 -28 115 -36 28 -9 61 -13 73 -9 12 4 21 2
21 -4 0 -6 9 -11 20 -11 11 0 20 -4 20 -8 0 -4 28 -14 63 -21 34 -8 67 -17 72
-20 6 -3 19 -6 30 -7 34 -2 78 -13 115 -28 19 -7 89 -29 155 -47 66 -18 122
-37 123 -41 2 -4 13 -8 25 -8 12 0 34 -6 49 -14 40 -21 92 -31 83 -16 -6 9 -3
9 14 1 11 -7 21 -16 21 -21 0 -6 9 -10 19 -10 22 0 141 -29 156 -38 5 -3 23
-7 40 -9 16 -2 54 -8 82 -14 29 -6 55 -10 58 -10 3 1 29 -8 57 -18 29 -11 69
-23 88 -27 45 -10 40 -9 78 -18 17 -4 32 -12 32 -18 0 -6 11 -8 25 -6 14 3 28
1 31 -3 3 -5 17 -6 32 -3 54 12 56 13 31 34 -13 11 -29 24 -36 30 -7 5 -28 10
-48 10 -22 0 -35 5 -35 13 0 22 -141 84 -161 71 -5 -3 -8 0 -7 6 2 7 -30 23
-72 37 -41 14 -76 29 -78 34 -2 5 -21 9 -43 9 -24 0 -39 5 -39 13 -1 17 -64
47 -89 40 -15 -4 -21 -1 -21 12 0 13 -6 16 -26 12 -19 -3 -24 -1 -20 10 3 8 1
11 -4 8 -16 -10 -80 6 -80 20 0 6 -18 20 -40 30 -22 10 -40 24 -40 32 0 7 -3
12 -8 12 -18 -3 -32 2 -47 18 -14 14 -18 14 -26 2 -8 -12 -10 -12 -19 1 -5 8
-10 21 -10 28 0 18 -21 15 -36 -5 -13 -17 -13 -17 -14 2 0 15 -17 30 -62 53
-35 18 -71 32 -80 32 -23 0 -23 9 -1 25 15 11 10 14 -39 24 -30 7 -73 21 -94
32 -22 12 -50 24 -64 29 -14 5 -50 18 -80 30 -30 11 -89 33 -129 47 -41 14
-86 32 -100 40 -15 7 -35 13 -46 13 -12 0 -25 4 -30 9 -6 5 -26 14 -45 19 -48
14 -104 36 -110 43 -3 3 -23 11 -45 16 -53 14 -296 100 -315 111 -8 5 -45 15
-82 22 -38 8 -68 17 -68 21 0 7 -28 20 -55 25 -44 8 -104 28 -123 40 -12 8
-28 12 -34 8 -6 -4 -8 -3 -5 2 3 6 -20 16 -51 23 -31 7 -67 22 -81 32 -14 12
-40 19 -65 19 -27 0 -36 3 -27 9 7 5 9 11 5 13 -25 14 -148 48 -159 44 -7 -2
-21 2 -32 9 -10 8 -28 15 -41 15 -13 0 -30 7 -38 15 -9 8 -26 15 -40 15 -13 0
-24 4 -24 10 0 5 -27 15 -60 22 -34 7 -55 15 -48 19 7 5 1 10 -18 14 -16 4
-45 12 -64 18 -19 6 -42 12 -50 13 -47 3 -80 18 -80 35 0 14 -7 19 -29 19 -16
0 -36 7 -44 15 -10 10 -26 12 -51 8 -29 -4 -36 -2 -36 11 0 10 -8 16 -21 16
-29 0 -59 18 -59 35 0 9 -6 12 -15 9 -8 -4 -15 -1 -15 5 0 6 -7 11 -16 11 -8
0 -13 4 -10 9 4 5 -3 7 -13 4 -12 -3 -37 7 -63 24 -54 36 -97 55 -108 48 -5
-3 -23 1 -39 10 -17 8 -43 15 -59 15 -18 0 -41 12 -66 35 -32 29 -77 48 -121
50 -5 0 -11 10 -13 23 -2 13 -10 22 -21 22 -23 0 -51 30 -30 30 9 1 7 6 -6 16
-11 8 -29 13 -41 10 -15 -4 -30 4 -53 29 -17 19 -31 39 -31 45 0 5 -12 13 -27
16 -44 11 -83 33 -83 49 0 7 -12 23 -26 34 -15 12 -24 27 -21 35 4 10 0 12
-14 9 -16 -5 -19 0 -19 36 0 22 -4 41 -10 41 -5 0 -10 20 -10 44 0 26 -6 48
-15 56 -12 10 -15 10 -15 -4 0 -9 -4 -16 -9 -16 -12 0 -71 59 -71 70 0 5 17
11 38 13 26 3 23 4 -9 2 -26 -1 -57 4 -70 11 -32 18 -39 17 -39 -2 0 -9 -3
-14 -7 -12 -29 14 -65 28 -106 43 -26 9 -45 21 -41 26 3 5 -5 9 -18 9 -21 1
-22 2 -5 14 25 20 21 25 -24 32 -22 4 -46 13 -54 20 -7 8 -27 14 -44 14 -30 0
-50 6 -126 40 -22 10 -56 25 -75 33 -19 9 -59 19 -87 22 l-53 7 0 -615z m808
117 c12 -4 22 -11 22 -16 0 -14 -53 -5 -58 10 -4 13 2 15 36 6z m-460 -792 c2
-7 -3 -12 -12 -12 -9 0 -16 7 -16 16 0 17 22 14 28 -4z"/>
<path d="M880 18970 c0 -13 5 -18 15 -14 12 5 13 10 4 20 -15 19 -19 18 -19
-6z"/>
<path d="M960 18815 c0 -8 7 -15 16 -15 14 0 14 3 4 15 -7 8 -14 15 -16 15 -2
0 -4 -7 -4 -15z"/>
<path d="M58 18123 c-24 -6 -23 -23 2 -23 11 0 20 7 20 15 0 8 -1 14 -2 14 -2
-1 -11 -3 -20 -6z"/>
<path d="M8891 17574 c-16 -18 -15 -20 26 -28 33 -8 47 3 37 28 -8 20 -45 20
-63 0z"/>
<path d="M9040 17510 c0 -5 5 -10 10 -10 6 0 10 5 10 10 0 6 -4 10 -10 10 -5
0 -10 -4 -10 -10z"/>
<path d="M4498 17323 c7 -3 16 -2 19 1 4 3 -2 6 -13 5 -11 0 -14 -3 -6 -6z"/>
<path d="M0 16941 l0 -321 36 0 c20 0 48 -9 64 -20 20 -14 55 -22 126 -28 55
-5 113 -14 129 -20 31 -11 134 -30 195 -37 19 -2 60 -10 90 -18 80 -22 143
-30 135 -17 -9 14 7 13 50 -5 37 -16 67 -23 210 -52 44 -9 82 -19 85 -22 5 -7
144 -46 215 -60 22 -5 59 -15 82 -24 23 -9 63 -19 90 -23 26 -3 56 -11 66 -16
22 -11 49 -18 96 -23 19 -2 37 -9 42 -16 4 -6 16 -9 28 -6 12 3 24 1 27 -4 3
-5 20 -9 39 -9 19 0 36 -4 39 -9 5 -8 50 -21 90 -26 11 -1 22 -7 24 -13 5 -16
42 -15 42 1 1 7 5 6 13 -5 7 -9 26 -20 43 -24 66 -15 199 -55 267 -80 40 -14
95 -32 122 -38 28 -7 57 -15 65 -18 8 -4 39 -9 69 -13 29 -3 82 -17 117 -32
60 -23 103 -25 89 -4 -3 5 -1 12 5 16 6 4 10 -5 10 -19 0 -31 -2 -30 44 -11
21 9 36 11 36 5 0 -5 22 -10 50 -10 54 0 149 -18 166 -31 5 -4 20 -5 33 -2 14
4 26 1 32 -8 6 -10 25 -13 66 -11 37 2 69 -2 86 -11 18 -9 44 -13 72 -9 32 3
52 0 70 -12 21 -14 29 -15 41 -5 11 9 18 9 22 2 12 -18 50 -33 86 -33 36 0 56
-14 34 -23 -7 -3 5 -5 27 -5 22 1 54 -6 72 -15 18 -10 47 -17 65 -18 18 0 42
-4 53 -8 32 -13 40 -3 37 44 -3 37 -8 45 -23 45 -11 0 -25 5 -32 10 -52 44
-62 50 -79 44 -11 -3 -30 1 -43 10 -13 9 -36 16 -51 16 -14 0 -38 8 -52 19
-15 10 -44 24 -64 32 -21 7 -38 16 -38 20 0 4 -15 9 -32 11 -27 2 -33 7 -32
25 0 12 -3 20 -8 17 -11 -7 -68 15 -86 33 -7 7 -31 16 -53 19 -21 4 -44 13
-50 20 -6 8 -23 14 -38 14 -14 0 -57 11 -96 25 -38 13 -77 25 -86 25 -9 0 -22
6 -28 14 -7 8 -27 18 -44 22 -18 3 -37 10 -42 15 -6 4 -22 10 -35 12 -29 6
-176 54 -205 68 -20 9 -81 27 -190 54 -108 27 -128 34 -258 95 -24 11 -50 20
-59 20 -8 0 -41 9 -74 21 -63 22 -88 30 -174 53 -66 17 -153 48 -160 57 -3 4
-48 21 -100 39 -52 18 -100 36 -106 41 -7 6 -23 12 -35 14 -61 12 -79 17 -79
24 0 11 -124 51 -159 51 -15 0 -31 3 -34 7 -12 12 -110 43 -118 37 -5 -3 -9
-1 -9 4 0 5 -13 12 -29 15 -16 3 -35 12 -43 19 -32 30 -59 40 -74 27 -10 -8
-14 -8 -14 0 0 6 -7 11 -15 11 -8 0 -15 6 -15 14 0 20 -17 29 -51 28 -16 0
-31 4 -34 9 -4 5 -15 9 -26 9 -10 0 -19 4 -19 9 0 5 -18 12 -40 16 -22 4 -55
17 -74 30 -21 14 -45 22 -58 20 -15 -3 -33 4 -50 20 -14 13 -28 21 -32 18 -3
-3 -17 2 -31 11 -15 10 -45 19 -67 22 -23 2 -44 7 -47 10 -3 4 6 4 22 2 15 -3
27 -4 27 -2 0 6 -59 34 -67 33 -4 -1 -15 1 -23 4 -8 3 -34 11 -57 17 -23 6
-45 15 -48 20 -3 6 -19 10 -35 10 -16 0 -32 5 -35 11 -4 5 -12 8 -18 6 -7 -2
-23 1 -37 8 -14 7 -42 15 -63 19 -21 4 -45 10 -53 13 -12 4 -14 -42 -14 -316z
m720 -441 c0 -5 -5 -10 -11 -10 -5 0 -7 5 -4 10 3 6 8 10 11 10 2 0 4 -4 4
-10z m2477 -586 c-3 -3 -12 -4 -19 -1 -8 3 -5 6 6 6 11 1 17 -2 13 -5z"/>
<path d="M5520 16790 c0 -5 7 -10 15 -10 8 0 15 5 15 10 0 6 -7 10 -15 10 -8
0 -15 -4 -15 -10z"/>
<path d="M16058 16393 c7 -3 16 -2 19 1 4 3 -2 6 -13 5 -11 0 -14 -3 -6 -6z"/>
<path d="M16130 16396 c0 -2 7 -9 15 -16 12 -10 15 -10 15 4 0 9 -7 16 -15 16
-8 0 -15 -2 -15 -4z"/>
<path d="M16530 16076 c0 -2 7 -9 15 -16 12 -10 15 -10 15 4 0 9 -7 16 -15 16
-8 0 -15 -2 -15 -4z"/>
<path d="M10025 16023 c-260 -21 -396 -40 -693 -99 -524 -104 -955 -252 -1495
-512 -403 -195 -765 -434 -1182 -782 -113 -93 -383 -364 -536 -535 -241 -272
-339 -405 -551 -750 -279 -455 -425 -766 -576 -1235 -150 -464 -210 -749 -263
-1260 -40 -374 -29 -937 27 -1380 56 -450 144 -823 275 -1169 39 -102 95 -249
124 -326 197 -518 392 -878 694 -1280 176 -234 305 -385 545 -633 159 -165
443 -393 726 -584 242 -163 309 -203 525 -313 346 -175 677 -304 1045 -406 63
-17 153 -43 200 -56 214 -63 324 -84 660 -127 317 -41 446 -50 740 -50 286 0
385 6 710 45 509 60 1051 211 1620 452 193 81 551 263 650 330 25 17 117 78
205 137 314 211 449 325 790 666 206 205 278 290 462 544 267 369 348 506 563
965 59 127 150 355 206 520 47 140 61 224 37 232 -7 3 -13 11 -13 18 0 28 -35
72 -74 96 -39 22 -101 52 -101 48 0 -1 -21 8 -47 20 -26 11 -51 21 -57 21 -5
0 -14 7 -19 15 -4 9 -18 17 -31 20 -13 2 -36 18 -52 35 -16 16 -38 30 -48 30
-11 0 -22 9 -26 19 -3 11 -15 23 -25 26 -11 3 -31 20 -46 38 -15 18 -32 31
-37 29 -5 -1 -7 8 -4 20 4 13 1 30 -4 38 -9 13 -10 12 -5 -2 3 -12 1 -15 -10
-11 -10 3 -12 12 -8 27 4 11 4 18 1 15 -4 -3 -35 -90 -71 -195 -76 -224 -86
-248 -231 -579 -80 -180 -290 -593 -352 -692 -178 -281 -385 -536 -671 -827
-169 -171 -259 -245 -502 -412 -489 -337 -664 -432 -1117 -605 -422 -161 -898
-263 -1407 -300 -431 -32 -1032 25 -1467 139 -387 102 -815 270 -1133 443
-162 89 -432 257 -511 318 -33 26 -91 71 -130 101 -245 188 -700 648 -873 882
-227 308 -415 641 -585 1039 -297 694 -417 1269 -417 1994 0 497 37 800 152
1265 57 234 181 617 259 800 145 341 368 726 594 1025 103 136 109 144 296
351 351 389 730 695 1215 980 167 98 215 121 499 241 350 148 726 261 1040
313 311 51 427 62 708 67 358 7 533 -10 890 -83 404 -82 668 -174 1161 -400
206 -95 318 -159 560 -321 325 -217 665 -517 969 -853 72 -80 134 -147 137
-150 33 -30 256 -335 368 -501 248 -370 503 -968 626 -1471 104 -421 143 -766
152 -1328 6 -369 11 -418 44 -400 11 6 38 12 62 15 146 17 227 28 252 36 16 5
45 9 65 9 20 0 73 8 118 17 65 13 93 15 132 7 l49 -10 11 80 c38 291 3 931
-75 1391 -37 221 -128 604 -173 729 -65 181 -178 484 -208 556 -103 250 -422
819 -596 1065 -271 383 -673 795 -1152 1181 -172 138 -385 277 -758 494 -234
136 -789 371 -1092 463 -442 135 -818 203 -1258 227 -162 9 -392 11 -482 3z"/>
<path d="M2850 15922 c0 -5 18 -12 40 -14 22 -2 40 0 40 4 0 5 -8 8 -17 8 -10
0 -28 3 -40 6 -13 4 -23 2 -23 -4z"/>
<path d="M2968 15913 c7 -3 16 -2 19 1 4 3 -2 6 -13 5 -11 0 -14 -3 -6 -6z"/>
<path d="M3920 15767 c0 -27 13 -36 26 -16 3 6 -1 18 -10 27 -15 15 -16 14
-16 -11z"/>
<path d="M0 14488 l0 -1033 117 -28 c65 -15 141 -31 168 -37 134 -26 444 -91
475 -100 66 -18 353 -71 358 -66 2 3 14 0 26 -7 23 -13 41 -17 101 -21 23 -1
46 -6 53 -10 7 -4 16 -5 22 -1 5 3 21 2 37 -1 25 -7 25 -8 8 -15 -17 -6 -15
-8 10 -9 17 -1 35 -3 40 -4 6 -1 35 -5 65 -9 30 -5 68 -13 84 -20 23 -8 31 -8
34 1 5 15 38 16 47 2 4 -6 11 -7 17 -4 6 4 18 -3 28 -16 15 -21 18 -21 33 -5
15 15 21 13 18 -7 -2 -12 49 -22 111 -22 32 0 52 -3 47 -7 -10 -6 17 -13 94
-23 43 -6 14 22 -32 30 -40 8 -53 21 -45 47 4 14 -1 17 -35 17 -28 0 -41 4
-41 14 0 10 -22 15 -92 18 -114 5 -128 11 -93 43 14 13 25 31 25 40 0 11 11
15 43 16 29 2 34 3 15 6 -25 4 -28 8 -28 44 0 28 -4 39 -15 39 -11 0 -15 -11
-15 -40 0 -36 -3 -40 -24 -40 -13 0 -26 -7 -30 -15 -7 -19 -26 -20 -26 -1 0 8
-4 17 -9 20 -4 3 -6 -6 -3 -19 2 -15 0 -25 -7 -25 -6 0 -11 -9 -11 -20 0 -11
-4 -20 -10 -20 -5 0 -10 18 -10 40 0 29 -4 40 -15 40 -19 0 -21 -76 -2 -83 27
-10 -1 -14 -47 -7 -40 6 -47 5 -33 -5 21 -15 22 -25 2 -25 -8 0 -15 6 -15 14
0 8 -6 17 -12 19 -10 4 -10 6 0 6 7 1 12 14 12 31 0 28 -3 30 -36 30 -21 0
-33 4 -29 10 3 6 22 10 40 10 l34 0 -6 80 -6 80 27 0 c24 0 26 3 26 40 0 29 4
40 15 40 11 0 15 -11 15 -40 0 -29 4 -40 15 -40 11 0 15 11 15 40 0 22 5 40
10 40 6 0 10 33 10 80 0 64 3 80 15 80 13 0 15 -24 15 -160 l0 -160 25 0 c23
0 25 4 25 40 0 29 4 40 15 40 11 0 15 11 15 40 l0 40 55 0 55 0 0 80 c0 79 0
80 25 80 23 0 25 4 25 40 0 29 -4 40 -15 40 -12 0 -15 16 -15 80 0 64 3 80 15
80 11 0 15 -11 15 -40 l0 -40 40 0 40 0 0 40 c0 30 -4 40 -16 40 -14 0 -15 2
-3 17 13 15 14 15 17 0 3 -12 14 -17 43 -17 39 0 39 0 39 40 l0 40 40 0 40 0
0 40 c0 29 4 40 15 40 12 0 15 16 15 80 0 73 2 80 20 80 17 0 20 -7 20 -40 0
-33 3 -40 20 -40 11 0 20 5 20 10 0 6 11 15 25 20 28 11 35 50 9 50 -14 0 -15
2 -3 17 13 15 14 15 17 0 3 -12 14 -17 43 -17 35 0 39 3 39 25 0 23 4 25 40
25 l40 0 0 50 c0 28 3 50 8 51 46 6 65 4 69 -7 3 -9 21 -14 44 -14 31 0 39 4
39 19 0 16 -7 18 -55 16 l-55 -2 0 39 0 38 95 0 95 0 0 40 0 40 55 0 c42 0 55
3 55 15 0 8 9 15 19 15 11 0 28 3 38 6 10 3 1 -5 -19 -17 -21 -13 -38 -27 -38
-31 0 -18 45 -24 109 -15 66 9 170 5 225 -9 47 -11 22 14 -27 27 -23 6 -51 15
-62 19 -63 25 -107 31 -123 18 -9 -7 -13 -8 -9 -2 7 12 -22 29 -63 38 -74 15
-247 60 -262 67 -10 5 -30 9 -46 9 -15 0 -32 4 -38 9 -5 5 -22 12 -39 15 -16
3 -183 44 -370 91 -187 48 -376 95 -420 105 -75 17 -250 61 -715 178 -107 27
-207 52 -222 56 -31 7 -38 26 -11 26 14 0 15 2 4 13 -10 10 -15 8 -26 -7 -13
-17 -19 -18 -52 -8 -21 5 -57 13 -80 17 -24 4 -45 11 -49 16 -3 5 -16 9 -29 9
-13 0 -26 4 -29 9 -10 16 21 20 49 5 21 -11 31 -11 41 -3 19 16 208 -12 220
-33 3 -4 24 -8 47 -8 23 0 61 -7 83 -15 23 -7 79 -16 125 -19 90 -6 175 -21
224 -38 17 -6 44 -12 60 -14 43 -5 117 -24 130 -33 5 -4 44 -13 84 -20 41 -6
80 -16 87 -21 6 -6 22 -10 35 -9 32 0 94 -14 149 -36 25 -9 65 -19 89 -21 25
-2 47 -8 50 -12 3 -4 33 -14 66 -20 33 -7 78 -17 100 -23 22 -5 76 -18 120
-28 92 -22 193 -49 215 -58 8 -3 27 -6 42 -7 14 0 30 -4 34 -8 4 -5 25 -8 46
-8 21 0 54 -6 72 -14 44 -18 136 -31 136 -18 0 5 -10 12 -22 15 -13 3 -39 10
-58 15 -19 5 -69 19 -110 30 -186 50 -687 180 -745 192 -53 11 -176 44 -240
64 -27 9 -111 32 -185 51 -74 20 -146 40 -160 45 -14 5 -36 11 -50 13 -14 2
-33 7 -42 12 -10 4 -73 22 -140 40 -162 44 -230 64 -248 71 -8 4 -51 17 -95
30 -184 52 -232 67 -270 85 -22 10 -49 17 -60 15 -11 -2 -23 1 -26 6 -3 5 -18
11 -34 14 -16 3 -33 8 -39 11 -5 4 -30 8 -54 10 -25 2 -50 7 -56 12 -6 5 -28
12 -48 16 l-38 7 0 -1034z m330 772 c13 -8 13 -10 -2 -10 -9 0 -20 5 -23 10
-8 13 5 13 25 0z m70 -20 c0 -5 -7 -10 -15 -10 -8 0 -15 5 -15 10 0 6 7 10 15
10 8 0 15 -4 15 -10z m2465 -680 c15 -7 9 -9 -25 -9 -33 -1 -41 2 -30 9 18 12
28 12 55 0z m-1425 -1055 c0 -11 -11 -15 -40 -15 -29 0 -40 4 -40 15 0 11 11
15 40 15 29 0 40 -4 40 -15z m-83 -287 c-2 -13 -4 -3 -4 22 0 25 2 35 4 23 2
-13 2 -33 0 -45z m239 -56 c-4 -3 -12 0 -19 7 -9 9 -9 14 3 21 11 7 16 5 18
-6 2 -9 1 -18 -2 -22z m194 -62 c8 -5 11 -10 5 -10 -5 0 -17 5 -25 10 -8 5
-10 10 -5 10 6 0 17 -5 25 -10z"/>
<path d="M616 15205 c-19 -15 -19 -15 2 -15 13 0 22 6 22 15 0 18 0 18 -24 0z"/>
<path d="M2740 14760 c0 -5 7 -11 15 -11 32 -3 36 -4 43 -15 4 -7 30 -12 58
-12 28 0 64 -6 80 -15 37 -18 104 -31 104 -19 0 5 -11 10 -25 10 -13 0 -39 6
-57 15 -18 8 -51 18 -73 22 -22 4 -51 10 -65 15 -49 16 -80 20 -80 10z"/>
<path d="M3078 14673 c7 -3 16 -2 19 1 4 3 -2 6 -13 5 -11 0 -14 -3 -6 -6z"/>
<path d="M3188 14643 c6 -2 18 -2 25 0 6 3 1 5 -13 5 -14 0 -19 -2 -12 -5z"/>
<path d="M19203 14040 c0 -25 2 -35 4 -22 2 12 2 32 0 45 -2 12 -4 2 -4 -23z"/>
<path d="M1698 13203 c12 -2 32 -2 45 0 12 2 2 4 -23 4 -25 0 -35 -2 -22 -4z"/>
<path d="M10115 13193 c-213 -17 -475 -70 -675 -136 -126 -41 -408 -177 -568
-272 -184 -110 -467 -350 -622 -528 -88 -100 -212 -271 -278 -382 -57 -97
-174 -343 -212 -444 -133 -362 -200 -857 -187 -1371 10 -370 31 -541 68 -560
24 -13 1219 -25 1274 -13 36 8 41 13 53 53 14 48 13 96 -8 450 -22 349 7 647
80 847 103 279 320 545 598 732 144 97 362 174 595 211 165 27 372 -1 615 -84
265 -89 473 -336 596 -707 82 -247 99 -431 94 -996 -5 -456 -3 -479 41 -502
23 -13 1298 -16 1318 -3 18 11 40 70 47 127 28 208 22 942 -9 1155 -35 246
-113 558 -181 726 -86 214 -258 513 -381 664 -197 242 -498 507 -742 653 -352
212 -706 331 -1105 372 -134 14 -304 17 -411 8z"/>
<path d="M1945 13100 c3 -5 15 -10 26 -10 11 0 17 5 14 10 -3 6 -15 10 -26 10
-11 0 -17 -4 -14 -10z"/>
<path d="M2045 13040 c-16 -7 -17 -9 -3 -9 9 -1 20 4 23 9 7 11 7 11 -20 0z"/>
<path d="M2088 13033 c7 -3 16 -2 19 1 4 3 -2 6 -13 5 -11 0 -14 -3 -6 -6z"/>
<path d="M2174 13025 c8 -8 17 -15 20 -15 3 0 3 7 0 15 -4 8 -13 15 -21 15
-12 0 -12 -2 1 -15z"/>
<path d="M2231 13024 c0 -11 3 -14 6 -6 3 7 2 16 -1 19 -3 4 -6 -2 -5 -13z"/>
<path d="M0 11976 l0 -456 120 0 120 0 0 40 c0 22 4 40 9 40 13 0 71 59 71 72
0 6 -7 8 -15 5 -8 -4 -17 -2 -19 2 -3 4 21 6 54 4 l60 -5 0 56 0 56 40 0 c38
0 40 1 40 33 l1 32 14 -32 c17 -40 33 -42 47 -5 10 25 14 27 54 23 l44 -3 0
56 0 56 80 0 c64 0 80 -3 80 -15 0 -11 11 -15 40 -15 29 0 40 -4 40 -15 0 -11
11 -15 40 -15 38 0 40 2 40 30 0 28 2 30 40 30 29 0 40 -4 40 -15 0 -8 7 -15
15 -15 11 0 15 11 15 40 0 36 3 40 25 40 14 0 25 5 25 10 0 6 18 10 40 10 22
0 40 -4 40 -10 0 -5 18 -10 40 -10 29 0 40 4 40 15 0 12 16 15 80 15 79 0 80
0 80 25 0 27 24 35 33 11 3 -7 15 -16 26 -19 16 -4 21 0 21 14 0 15 7 19 34
19 18 0 62 2 97 5 44 4 58 2 44 -4 -16 -8 -12 -10 23 -12 23 -1 48 -2 55 -3 6
-1 11 5 9 12 -1 9 8 12 31 10 18 -1 38 2 45 6 7 4 12 2 12 -4 0 -7 14 -10 34
-9 19 2 39 -1 43 -5 5 -5 2 -6 -7 -1 -12 6 -13 5 -3 -5 10 -11 18 -11 38 -2
21 10 25 9 25 -3 0 -11 11 -15 40 -15 29 0 40 4 40 15 0 9 -10 15 -26 15 -14
0 -44 4 -67 9 -45 10 -153 29 -202 36 -45 6 -540 92 -695 120 -74 14 -164 29
-200 34 -36 6 -121 19 -190 31 -69 12 -150 25 -180 30 -93 15 -474 81 -497 87
l-23 5 0 -456z m1677 138 c-3 -3 -12 -4 -19 -1 -8 3 -5 6 6 6 11 1 17 -2 13
-5z"/>
<path d="M2104 12053 c4 -4 25 -8 48 -9 22 -1 44 -8 48 -14 6 -10 13 -9 29 2
21 15 21 15 -10 22 -43 8 -124 8 -115 -1z"/>
<path d="M2280 12030 c14 -4 36 -8 50 -9 20 -1 22 1 10 9 -8 5 -31 9 -50 9
-32 -1 -33 -2 -10 -9z"/>
<path d="M720 11825 c0 -11 11 -15 40 -15 29 0 40 4 40 15 0 11 -11 15 -40 15
-29 0 -40 -4 -40 -15z"/>
<path d="M406 11699 c-9 -88 -8 -99 9 -99 11 0 15 11 15 40 0 33 3 40 20 40
17 0 20 7 20 40 0 37 -2 40 -29 40 -27 0 -28 -2 -35 -61z"/>
<path d="M10657 9750 c-9 -11 -13 -20 -7 -20 5 0 14 9 20 20 6 11 9 20 8 20
-2 0 -11 -9 -21 -20z"/>
<path d="M9773 9703 c-16 -21 -81 -130 -145 -243 -63 -113 -145 -252 -181
-310 -36 -58 -135 -220 -220 -360 -86 -140 -194 -316 -241 -390 -47 -74 -118
-189 -158 -254 -40 -66 -87 -142 -105 -170 -17 -28 -43 -69 -56 -91 -13 -22
-69 -114 -124 -205 -198 -327 -239 -399 -359 -630 -67 -129 -153 -282 -191
-339 -37 -58 -75 -116 -83 -130 -9 -14 -24 -38 -34 -54 -27 -40 -9 -76 52
-104 26 -13 53 -23 60 -23 7 0 12 -6 12 -14 0 -8 20 -19 48 -27 26 -7 53 -20
59 -30 7 -9 29 -20 50 -24 21 -4 43 -11 48 -15 10 -8 127 -54 170 -67 11 -4
22 -9 25 -12 7 -9 93 -51 103 -51 5 0 20 -9 33 -19 14 -11 42 -22 63 -26 22
-4 47 -17 60 -31 11 -13 30 -24 41 -24 11 0 20 -4 20 -9 0 -5 17 -11 39 -15
21 -3 43 -12 50 -19 6 -8 41 -22 78 -32 38 -10 71 -22 74 -28 4 -5 33 -13 65
-17 73 -11 113 -19 139 -30 11 -4 47 -15 80 -25 33 -9 70 -23 81 -30 12 -8 43
-15 68 -17 25 -2 46 -6 46 -10 0 -5 13 -8 29 -8 16 0 36 -7 45 -15 9 -10 39
-17 73 -19 32 -2 76 -8 98 -14 43 -11 152 -25 337 -42 131 -12 535 -5 638 11
36 6 144 15 240 20 96 5 191 11 210 14 19 3 49 7 66 9 16 2 41 10 55 19 13 9
36 19 52 22 15 4 27 11 27 15 0 5 16 14 35 20 50 16 127 59 148 81 10 10 22
19 26 19 5 0 37 27 71 60 34 33 67 60 72 60 5 0 16 7 25 15 8 9 28 19 44 22
16 3 29 9 29 13 0 8 122 50 145 50 8 0 15 4 15 9 0 5 18 11 40 15 22 3 40 10
40 15 0 5 10 11 23 15 12 3 32 14 44 25 11 11 37 23 57 26 19 4 40 13 47 21 6
8 24 14 40 14 18 0 29 5 29 14 0 9 15 17 40 21 22 4 40 10 40 13 0 12 84 60
118 67 18 4 45 13 60 21 15 8 48 17 75 20 45 6 58 16 38 28 -5 4 -12 0 -15 -6
-3 -7 -3 -2 0 12 4 21 -13 50 -89 151 -234 313 -478 568 -792 829 -100 84
-286 246 -481 421 -158 142 -252 240 -439 459 -49 58 -92 107 -96 110 -3 3
-31 37 -62 75 -32 39 -64 77 -73 86 -8 9 -12 24 -8 35 4 13 3 15 -3 6 -7 -9
-15 -6 -33 13 -19 21 -21 25 -7 25 9 0 17 6 17 13 1 8 4 7 13 -3 7 -8 22 -14
35 -12 13 2 30 -2 38 -9 20 -17 28 -5 12 20 -17 28 3 51 28 30 14 -11 18 -11
30 6 12 16 12 22 -1 41 -8 13 -15 28 -15 33 0 10 39 27 54 23 5 -2 6 11 2 29
-3 17 -6 38 -6 45 0 8 -6 11 -15 8 -8 -4 -15 -1 -15 5 0 6 7 11 15 11 8 0 15
6 15 14 0 8 4 16 8 18 4 2 17 22 29 44 20 39 20 43 5 59 -12 12 -13 19 -5 22
7 2 10 10 7 16 -2 7 0 26 5 42 5 17 10 24 10 18 1 -7 5 -13 10 -13 13 0 21 53
10 67 -7 8 -4 13 10 18 12 3 21 10 21 15 0 5 -7 7 -15 4 -12 -5 -15 3 -15 35
0 29 -4 41 -14 41 -9 0 -17 15 -21 39 -4 22 -12 42 -20 44 -7 3 -15 23 -18 44
-16 101 -19 113 -36 113 -9 0 -25 -13 -36 -30 -29 -44 -41 -21 -19 39 15 43
16 54 4 76 l-13 25 -25 -38 c-14 -20 -34 -48 -46 -61 -12 -13 -15 -21 -9 -17
9 5 11 2 7 -8 -3 -9 -10 -14 -15 -13 -5 1 -17 -11 -27 -28 -9 -16 -20 -32 -23
-35 -3 -3 -32 -45 -64 -95 -32 -49 -88 -136 -124 -192 -36 -57 -71 -103 -76
-103 -6 0 -19 15 -30 33 -10 17 -51 77 -89 132 -39 55 -119 177 -179 270 -60
94 -112 174 -116 178 -5 5 -22 -9 -38 -30z m862 -52 c-3 -12 -11 -21 -17 -21
-7 0 -6 5 1 14 8 10 9 16 1 21 -6 3 -7 11 -4 17 11 17 27 -8 19 -31z m-141
-887 c9 -3 16 -12 16 -19 0 -17 -37 -8 -44 11 -6 15 3 18 28 8z"/>
<path d="M10670 9709 c0 -5 5 -7 10 -4 6 3 10 8 10 11 0 2 -4 4 -10 4 -5 0
-10 -5 -10 -11z"/>
<path d="M10800 9543 c0 -6 6 -16 14 -22 18 -15 34 5 17 22 -9 9 -11 7 -6 -8
7 -20 6 -20 -9 -1 -9 11 -16 15 -16 9z"/>
<path d="M10811 9484 c0 -11 3 -14 6 -6 3 7 2 16 -1 19 -3 4 -6 -2 -5 -13z"/>
<path d="M7402 9228 c-5 -7 -33 -59 -61 -115 -28 -56 -91 -171 -139 -255 -248
-427 -356 -611 -409 -693 -267 -417 -300 -476 -279 -497 7 -8 17 -25 21 -38 4
-14 11 -27 15 -30 4 -3 18 -25 30 -50 13 -25 35 -63 50 -85 15 -22 38 -71 50
-110 29 -87 76 -161 113 -174 15 -6 27 -14 27 -18 0 -5 15 -17 34 -27 19 -10
61 -43 93 -72 32 -30 66 -57 76 -60 9 -3 17 -12 17 -20 0 -8 7 -14 16 -14 8 0
12 -4 9 -10 -3 -5 1 -10 9 -10 9 0 21 -9 28 -20 7 -11 17 -20 23 -20 17 -1 75
-59 75 -75 0 -8 7 -15 15 -15 8 0 19 -9 25 -20 6 -11 17 -20 25 -20 8 0 15 -6
15 -12 0 -14 53 -48 75 -48 7 0 18 -7 25 -15 24 -28 101 -12 148 32 7 7 26 20
42 30 17 9 30 21 30 26 0 5 24 33 53 63 28 30 52 57 52 62 0 4 17 25 38 47 20
22 37 43 37 46 0 3 9 16 20 29 11 13 20 31 20 42 0 10 7 18 16 18 9 0 14 5 12
12 -4 12 2 21 48 72 13 15 31 41 40 58 17 32 26 45 57 79 9 10 17 23 17 27 0
5 9 17 20 27 11 10 17 21 15 25 -2 4 4 15 15 25 11 10 20 25 20 33 0 9 14 39
30 69 17 29 30 61 30 72 0 11 7 26 15 35 8 8 15 24 15 35 0 11 15 51 34 88 74
147 78 165 65 270 -6 51 -9 128 -7 171 4 68 9 83 41 130 52 75 88 117 116 132
19 10 22 17 17 41 -4 20 -2 28 5 23 14 -8 2 13 -66 126 -61 100 -89 151 -175
315 -79 151 -138 245 -153 245 -17 0 -60 -69 -167 -265 -51 -93 -95 -172 -97
-175 -6 -6 -28 22 -118 150 -168 238 -229 320 -240 320 -7 0 -17 -6 -23 -12z"/>
<path d="M12383 9161 c3 -13 0 -18 -7 -15 -17 7 -44 -45 -28 -54 7 -5 2 -17
-16 -37 -16 -17 -26 -38 -24 -49 3 -14 0 -17 -13 -13 -13 6 -15 3 -10 -13 6
-19 -8 -29 -18 -12 -2 4 -2 2 -1 -5 2 -7 -1 -15 -6 -18 -6 -4 -10 -15 -10 -27
0 -14 -5 -18 -16 -14 -9 4 -13 2 -8 -5 9 -16 -16 -58 -32 -52 -9 3 -11 -2 -7
-16 3 -13 1 -21 -6 -21 -7 0 -9 -4 -6 -10 10 -17 -6 -34 -17 -19 -7 10 -8 9
-4 -5 4 -11 2 -23 -5 -27 -8 -5 -8 -12 0 -25 9 -17 10 -17 11 -2 0 24 74 62
87 45 19 -24 23 -47 8 -47 -8 0 -15 5 -15 11 0 5 -4 7 -10 4 -5 -3 -10 -26
-10 -50 0 -25 -5 -45 -12 -48 -7 -3 -3 -6 10 -6 20 -1 22 -6 22 -50 0 -40 3
-50 20 -54 23 -6 39 -39 22 -45 -9 -3 -8 -13 3 -38 8 -19 12 -41 9 -49 -4 -9
0 -15 10 -15 9 0 16 -8 16 -20 0 -11 -6 -20 -14 -20 -11 0 -13 -9 -9 -34 4
-28 1 -36 -16 -46 -12 -6 -19 -15 -16 -19 2 -5 -3 -19 -13 -32 -39 -53 -53
-109 -27 -109 8 0 15 -9 15 -20 0 -14 5 -18 17 -13 11 4 14 3 9 -5 -4 -7 -1
-12 8 -12 9 0 16 -4 16 -10 0 -5 7 -10 15 -10 8 0 15 -6 15 -14 0 -8 5 -16 10
-18 6 -2 12 -17 13 -33 2 -21 10 -34 30 -43 15 -7 27 -21 27 -31 0 -9 9 -27
20 -39 11 -12 20 -27 20 -34 0 -7 9 -19 20 -26 15 -9 20 -23 20 -57 0 -43 2
-46 30 -51 23 -5 30 -12 30 -30 0 -27 19 -73 38 -93 8 -8 11 -24 8 -37 -3 -12
-2 -26 4 -29 5 -3 10 -1 10 4 0 6 5 11 10 11 6 0 10 -12 10 -27 0 -17 14 -46
35 -72 19 -24 35 -48 35 -54 0 -5 14 -25 30 -44 17 -18 31 -41 31 -51 1 -9 2
-21 4 -27 1 -5 3 -16 3 -22 1 -7 11 -13 22 -13 11 0 20 -5 20 -11 0 -14 55
-69 69 -69 6 0 11 -9 11 -20 0 -10 10 -30 23 -43 12 -14 36 -41 52 -60 17 -20
35 -36 40 -37 6 0 16 -13 22 -30 6 -16 18 -30 27 -30 9 0 16 -6 16 -12 1 -19
53 -55 58 -40 2 7 9 12 16 12 22 0 66 25 66 38 0 6 8 12 19 12 10 0 24 7 31
15 7 8 18 15 26 15 7 0 22 14 34 30 12 17 28 30 35 30 8 0 24 13 37 30 12 16
30 32 40 36 10 3 18 11 18 18 0 7 11 19 25 26 15 8 30 29 37 52 8 26 20 42 40
50 15 7 28 18 28 25 0 7 11 29 25 49 14 20 25 45 25 55 0 11 7 19 16 19 14 0
15 10 10 72 -5 67 -16 92 -57 128 -3 3 -8 13 -12 23 -3 9 -16 17 -27 17 -11 0
-20 7 -20 15 0 11 -7 14 -25 9 -22 -5 -24 -3 -22 23 2 22 -2 28 -18 29 -39 2
-46 4 -41 12 7 12 -39 36 -53 28 -7 -5 -11 1 -11 14 0 12 4 19 9 16 12 -8 23
22 14 37 -4 7 -9 3 -14 -9 -6 -14 -8 -9 -9 21 -2 22 -2 43 -1 47 0 4 -5 5 -13
2 -15 -6 -30 22 -20 37 3 5 -4 20 -15 32 -41 44 -67 74 -101 117 -19 24 -44
53 -55 64 -12 12 -43 50 -70 86 -28 36 -52 67 -56 70 -3 3 -21 27 -40 55 -36
52 -36 53 -70 98 -12 16 -44 63 -71 104 -27 42 -56 82 -64 90 -8 8 -19 24 -25
36 -7 12 -35 51 -63 85 -28 35 -99 139 -157 230 -65 102 -112 166 -120 164 -8
-2 -11 0 -7 3 7 8 -18 65 -28 65 -4 0 -4 -9 -1 -19z m-3 -39 c0 -13 -12 -22
-22 -16 -10 6 -1 24 13 24 5 0 9 -4 9 -8z m-150 -296 c0 -3 -4 -8 -10 -11 -5
-3 -10 -1 -10 4 0 6 5 11 10 11 6 0 10 -2 10 -4z m30 -173 c0 -7 -4 -13 -10
-13 -5 0 -10 12 -10 28 0 21 2 24 10 12 5 -8 10 -21 10 -27z"/>
<path d="M10780 9121 c0 -6 5 -13 10 -16 6 -3 10 1 10 9 0 9 -4 16 -10 16 -5
0 -10 -4 -10 -9z"/>
<path d="M10740 8950 c0 -5 5 -10 10 -10 6 0 10 5 10 10 0 6 -4 10 -10 10 -5
0 -10 -4 -10 -10z"/>
<path d="M4353 8501 c-100 -34 -222 -130 -341 -268 -142 -164 -222 -309 -353
-639 -174 -439 -319 -725 -646 -1274 -188 -314 -320 -497 -636 -875 -125 -150
-514 -504 -537 -490 -6 3 -8 0 -5 -7 5 -15 -208 -158 -370 -248 -164 -91 -575
-290 -600 -290 -7 0 -16 -4 -20 -10 -3 -5 -13 -6 -21 -3 -11 4 8 16 53 35 69
29 326 152 353 169 8 5 30 16 47 24 18 9 33 19 33 24 0 5 11 12 25 15 14 4 25
13 25 21 0 8 6 12 13 9 8 -3 20 2 27 11 7 8 18 15 25 15 6 0 17 11 24 24 10
17 19 22 35 18 19 -5 19 -4 7 11 -12 15 -10 17 15 17 l29 1 -30 16 c-16 9 -52
17 -80 17 -42 1 -50 4 -47 19 2 14 -5 17 -48 17 -27 0 -50 5 -50 10 0 6 -18
10 -40 10 -22 0 -40 -4 -40 -10 0 -6 -29 -10 -67 -10 -44 0 -63 3 -54 9 11 7
7 11 -15 14 -16 3 8 3 53 0 l83 -5 0 26 c0 26 0 26 -80 26 -64 0 -80 3 -80 15
0 11 -13 15 -47 17 l-48 1 50 7 c45 6 43 7 -32 8 l-83 2 0 30 c0 28 2 30 39
30 22 0 41 -5 43 -10 2 -7 79 -14 193 -20 281 -14 285 -14 285 9 0 11 6 21 13
24 6 2 -73 7 -178 10 -104 4 -318 11 -475 17 -157 6 -401 10 -542 10 -251 0
-258 -1 -258 -20 0 -16 7 -20 33 -20 21 0 28 3 19 9 -10 6 -9 10 7 14 13 3 21
0 21 -7 0 -9 37 -12 143 -12 82 1 165 -5 197 -12 37 -9 56 -9 58 -2 6 17 82
13 82 -5 0 -11 -11 -15 -39 -15 -22 0 -43 -4 -46 -10 -3 -6 -15 -10 -26 -10
-21 0 -26 -15 -6 -24 6 -3 -7 -4 -31 -1 -66 8 -172 -5 -172 -21 0 -11 -23 -13
-120 -7 -104 5 -120 4 -120 -9 0 -13 17 -17 80 -23 83 -7 111 -25 40 -25 -22
0 -40 5 -40 10 0 6 -18 10 -40 10 l-40 0 0 -375 c0 -206 3 -375 6 -375 5 0 46
9 139 30 180 42 222 53 232 62 7 5 17 7 24 3 6 -4 14 -2 18 4 4 6 25 14 47 18
34 5 44 -7 11 -13 -7 -2 -43 -14 -82 -27 -88 -31 -174 -58 -297 -92 l-98 -28
0 -2053 0 -2054 10240 0 10240 0 0 310 0 310 -32 0 c-48 1 -127 20 -523 125
-55 15 -192 51 -305 80 -610 157 -909 242 -862 244 7 1 22 -3 32 -9 10 -5 36
-12 57 -14 21 -2 45 -6 53 -10 18 -7 158 -44 215 -57 52 -11 85 -20 283 -75
56 -16 89 -24 167 -43 22 -5 74 -19 115 -31 167 -49 323 -90 340 -90 11 0 21
-4 24 -9 3 -5 20 -11 38 -13 18 -3 87 -19 153 -37 66 -17 148 -35 183 -38 l62
-6 0 1367 c0 1088 -3 1366 -12 1364 -14 -3 -47 9 -253 90 -77 30 -149 61 -160
69 -11 7 -25 13 -32 13 -7 0 -36 11 -65 24 -29 13 -63 27 -75 31 -13 3 -23 11
-23 17 0 5 -6 8 -12 5 -7 -2 -38 7 -68 20 -30 13 -67 29 -81 36 -15 6 -25 16
-22 23 3 7 -5 10 -24 8 -25 -4 -26 -3 -8 6 17 9 15 10 -12 6 -18 -3 -44 1 -60
9 -15 8 -34 15 -41 15 -7 0 -10 4 -7 10 3 6 -1 7 -9 4 -11 -4 -16 0 -16 15 0
12 -1 21 -3 21 -1 0 -17 4 -35 9 -20 6 -32 6 -32 0 0 -5 8 -9 19 -9 10 0 24
-7 31 -15 16 -19 10 -19 -26 0 -16 8 -36 15 -44 15 -9 0 -20 4 -25 8 -6 5 -59
28 -120 52 -110 43 -142 60 -114 60 8 0 20 -5 27 -12 9 -9 12 -9 12 -1 0 14
-32 25 -51 18 -8 -3 -113 38 -234 91 -215 94 -415 179 -505 214 -69 27 -256
104 -350 144 -47 21 -96 42 -110 47 -99 41 -554 240 -685 299 -88 39 -216 96
-285 126 -69 30 -143 63 -165 73 -22 10 -108 48 -192 85 -204 91 -413 197
-558 283 -212 126 -355 289 -535 608 -53 93 -138 263 -149 297 -7 21 -28 69
-47 108 -19 39 -34 73 -34 76 0 3 -6 20 -14 37 -28 67 -70 174 -91 234 -25 74
-33 83 -48 62 -7 -9 -24 -31 -39 -50 -31 -39 -57 -75 -122 -170 -25 -37 -53
-72 -61 -79 -8 -7 -15 -16 -15 -21 0 -9 -47 -80 -58 -89 -19 -14 -30 -48 -20
-58 8 -8 8 -16 -2 -27 -16 -19 -10 -25 32 -35 l33 -8 -42 -1 c-38 -1 -42 1
-45 27 -4 23 -5 24 -12 9 -6 -13 -2 -25 13 -41 22 -23 28 -61 11 -71 -6 -4
-10 5 -10 19 0 31 -11 33 -33 8 -20 -22 -21 -32 -4 -32 11 0 11 -10 3 -50 -7
-36 -13 -47 -22 -39 -16 13 -44 1 -37 -17 3 -9 -1 -14 -11 -14 -9 0 -19 7 -22
15 -4 8 -12 15 -20 15 -8 0 -14 5 -14 10 0 6 -7 10 -15 10 -21 0 -19 17 3 24
9 3 -3 3 -27 0 -24 -2 -55 -11 -70 -18 -34 -18 -114 -124 -107 -142 3 -9 -2
-14 -14 -14 -23 0 -24 -4 -10 -30 7 -13 6 -19 -5 -23 -7 -3 -13 -18 -13 -34 1
-36 -11 -75 -22 -68 -4 3 -10 -2 -13 -9 -3 -8 -3 -16 1 -18 8 -3 39 -101 49
-153 3 -16 12 -36 20 -44 8 -8 12 -23 10 -33 -7 -25 19 -88 37 -88 7 0 19 -18
26 -40 7 -22 18 -40 24 -40 6 0 31 -18 54 -40 44 -40 72 -51 72 -27 0 8 4 7
10 -3 5 -8 10 -32 10 -52 0 -30 4 -38 18 -38 10 0 23 5 30 12 8 8 12 9 12 1 0
-6 8 -14 18 -16 16 -4 16 -5 0 -6 -10 0 -18 -8 -18 -16 0 -11 11 -15 40 -15
42 0 58 -24 23 -33 -15 -4 -16 -5 -2 -6 9 0 20 -12 23 -26 4 -14 11 -25 16
-25 6 0 10 -7 10 -15 0 -18 37 -20 42 -3 3 7 10 8 17 3 11 -6 8 -11 -10 -22
-14 -9 -17 -12 -6 -9 13 4 20 0 24 -14 3 -11 13 -20 22 -20 10 0 27 -10 38
-22 11 -13 29 -28 39 -34 10 -7 16 -14 13 -18 -7 -8 -109 41 -109 53 0 6 -8 9
-17 8 -16 -1 -154 48 -178 63 -5 4 -30 12 -55 19 -25 8 -58 19 -75 26 -43 19
-125 32 -160 25 -37 -6 -45 -36 -16 -56 29 -21 26 -50 -6 -71 -16 -10 -32 -23
-36 -30 -4 -7 -15 -13 -22 -13 -16 0 -20 -16 -7 -24 5 -3 9 -19 10 -35 0 -16
6 -40 13 -53 7 -13 12 -31 10 -40 -1 -9 7 -23 18 -30 15 -9 21 -23 21 -50 0
-30 5 -40 29 -54 23 -14 28 -21 21 -34 -10 -18 5 -40 25 -40 6 0 26 -15 43
-32 17 -18 42 -42 54 -54 13 -11 28 -28 33 -37 6 -10 21 -20 35 -22 25 -5 80
-56 80 -74 0 -6 3 -11 8 -11 4 0 20 -12 36 -26 23 -22 30 -24 38 -13 7 10 8 8
3 -7 -8 -30 19 -51 42 -33 15 13 16 12 11 -8 -4 -15 -2 -23 6 -23 7 0 23 -11
36 -25 13 -14 32 -25 42 -25 10 0 18 -4 18 -10 0 -13 41 -60 53 -60 10 0 107
-95 107 -104 0 -17 65 -76 79 -71 19 6 161 -124 161 -147 0 -11 13 -18 40 -23
22 -4 40 -11 40 -16 0 -6 14 -15 30 -20 17 -6 30 -15 30 -21 0 -6 7 -8 15 -4
9 3 20 -3 27 -14 8 -12 24 -20 41 -20 16 0 37 -5 47 -10 11 -6 38 -12 61 -14
38 -4 58 -17 59 -38 0 -5 -5 -8 -10 -8 -6 0 -5 -6 2 -14 11 -12 14 -11 20 8 4
14 6 16 7 5 1 -10 13 -19 32 -23 42 -8 61 -8 56 1 -3 5 18 9 46 11 28 1 56 7
61 12 6 6 20 10 32 10 12 0 43 9 69 20 26 11 64 22 86 25 22 3 56 12 77 21 20
8 55 19 77 24 22 5 60 16 85 24 25 8 106 34 180 57 154 47 350 118 364 130 13
12 77 11 95 0 7 -5 10 -14 7 -20 -19 -30 -187 -93 -390 -145 -87 -23 -271 -74
-421 -118 -38 -11 -140 -42 -225 -70 -85 -27 -179 -52 -209 -54 -30 -2 -56 -6
-58 -8 -2 -2 29 -22 70 -44 40 -22 79 -47 86 -55 10 -13 5 -16 -31 -22 -24 -3
-124 -33 -223 -65 -188 -61 -320 -101 -645 -195 -107 -31 -265 -78 -350 -104
-139 -44 -410 -120 -482 -137 -31 -7 -34 -14 -16 -32 6 -6 10 -14 7 -16 -7 -7
-141 23 -156 35 -7 6 -19 9 -27 6 -15 -6 -49 26 -59 55 -3 10 -75 51 -164 94
-87 42 -160 80 -163 84 -3 4 -17 10 -32 13 -15 4 -34 14 -42 23 -9 8 -20 12
-26 9 -6 -3 -13 1 -16 9 -3 9 -15 16 -25 16 -10 0 -19 5 -19 10 0 6 -6 10 -14
10 -7 0 -19 6 -25 14 -7 8 -28 22 -47 31 -20 9 -32 21 -28 27 5 7 2 8 -5 3 -8
-4 -23 3 -39 17 -15 14 -46 36 -69 48 -24 13 -43 27 -43 30 0 4 -18 15 -40 25
-22 10 -40 22 -40 27 0 4 -11 8 -25 8 -27 0 -32 9 -13 28 14 14 -3 17 -18 4
-5 -5 -20 -6 -34 -2 l-25 6 29 8 c24 6 27 9 15 18 -11 7 -9 8 6 3 19 -7 86
-15 128 -16 10 0 26 9 35 20 13 16 30 21 75 22 31 1 57 6 57 11 0 16 32 8 49
-14 17 -20 19 -20 41 -5 12 8 29 13 36 10 8 -3 14 1 14 11 0 13 14 16 83 18
179 6 278 -6 262 -32 -3 -4 9 -11 27 -15 18 -3 68 -15 111 -27 58 -16 77 -25
77 -38 0 -13 20 -23 80 -40 44 -13 80 -26 80 -30 0 -4 9 -10 21 -13 12 -3 18
-10 15 -15 -8 -13 30 -45 44 -37 6 4 18 1 26 -6 11 -9 12 -14 3 -20 -7 -4 1
-10 20 -14 17 -3 31 -10 31 -13 0 -10 51 -32 75 -32 12 0 25 -4 31 -9 5 -4 25
-11 44 -15 20 -3 30 -2 22 3 -8 5 20 13 77 20 50 7 94 17 97 23 3 5 17 7 31 3
16 -4 22 -2 18 5 -3 5 1 10 10 10 23 0 160 38 219 61 27 10 62 19 77 19 16 0
29 5 29 10 0 6 10 10 23 10 19 0 187 48 242 70 42 17 143 40 173 40 18 0 32 4
32 10 0 5 7 7 15 4 22 -9 79 13 93 36 11 18 10 21 -10 29 -86 33 -231 103
-398 192 -107 57 -213 112 -235 122 -37 17 -80 43 -147 89 -15 10 -34 18 -43
18 -8 0 -15 4 -15 9 0 5 -13 12 -30 16 -16 4 -30 11 -30 16 0 5 -9 9 -19 9
-11 0 -23 4 -26 10 -3 6 -14 10 -25 10 -10 0 -20 6 -23 13 -2 6 -32 21 -66 31
-33 11 -59 22 -56 24 3 3 0 11 -6 18 -8 10 -16 11 -29 4 -13 -7 -20 -6 -24 6
-4 10 -14 14 -26 11 -11 -3 -18 -1 -14 4 3 5 -4 9 -16 9 -20 0 -110 38 -120
50 -3 4 -17 10 -32 13 -15 4 -33 14 -42 22 -8 8 -23 15 -33 15 -15 0 -15 2 -4
9 11 7 5 11 -22 16 -20 4 -37 11 -37 15 0 5 -24 16 -52 26 -29 9 -147 66 -263
126 -511 264 -899 448 -946 448 -5 0 -9 -16 -9 -35 0 -19 -8 -62 -17 -95 -13
-47 -26 -69 -58 -99 -22 -21 -39 -43 -37 -49 2 -6 -7 -12 -20 -14 -15 -2 -24
-11 -26 -26 -2 -16 -8 -22 -18 -18 -8 3 -14 -1 -14 -8 0 -7 -18 -21 -40 -32
-22 -10 -40 -23 -40 -29 0 -10 -46 -35 -65 -35 -6 0 -27 -9 -47 -20 -21 -11
-44 -17 -53 -14 -10 4 -15 0 -15 -10 0 -11 -9 -16 -30 -16 -18 0 -30 -5 -30
-13 0 -14 -80 -37 -129 -37 -15 0 -36 -7 -47 -15 -10 -8 -40 -15 -66 -15 -26
0 -49 -4 -52 -9 -10 -15 -280 -56 -451 -68 -38 -3 -78 -9 -87 -14 -9 -5 -59
-9 -110 -9 -104 0 -427 -16 -618 -30 -254 -19 -485 -28 -502 -19 -12 7 -18 6
-18 -2 0 -13 -308 -6 -425 9 -164 22 -290 44 -295 51 -3 4 -27 11 -55 14 -133
17 -177 27 -219 51 -26 14 -52 26 -59 26 -7 0 -34 12 -62 25 -27 14 -54 25
-60 25 -5 0 -29 -14 -53 -30 -42 -28 -214 -100 -239 -100 -22 0 -14 38 13 59
14 11 25 23 24 28 0 4 8 9 19 11 11 2 27 14 35 27 14 22 14 26 -1 53 -11 20
-31 34 -55 42 -23 6 -36 15 -32 22 4 6 -1 8 -15 3 -13 -4 -21 -2 -21 5 0 7 -6
10 -14 7 -8 -3 -16 0 -19 7 -3 7 -24 18 -48 25 -24 8 -69 22 -99 32 -30 9 -89
27 -130 40 -41 12 -102 30 -135 40 -33 9 -125 38 -204 63 -80 24 -148 43 -153
40 -4 -3 -8 -23 -8 -46 0 -59 -26 -140 -81 -251 -55 -113 -114 -199 -213 -311
-110 -125 -196 -180 -441 -286 -60 -26 -153 -68 -205 -92 -52 -25 -115 -53
-140 -63 -25 -10 -63 -26 -85 -35 -22 -10 -51 -21 -65 -25 -25 -7 -90 -35
-142 -60 -15 -7 -51 -19 -80 -26 -29 -7 -56 -18 -60 -23 -7 -11 -84 -36 -110
-36 -32 0 -19 21 22 37 22 9 40 20 40 25 0 4 8 8 19 8 10 0 24 7 31 15 7 8 19
15 28 15 8 0 13 3 9 6 -3 4 9 15 28 25 19 11 50 27 68 37 17 10 51 37 74 60
23 23 52 42 63 42 23 0 50 22 50 40 0 6 11 15 25 22 13 6 22 15 19 19 -3 5 2
9 10 9 8 0 29 13 46 30 17 16 35 30 41 30 6 0 8 4 4 9 -3 5 9 20 27 32 18 13
67 58 108 101 42 43 81 78 88 78 7 0 12 6 12 13 0 6 25 30 55 52 30 22 55 43
55 47 0 3 9 10 20 13 11 4 37 22 58 41 20 19 40 34 43 34 13 0 117 107 153
158 21 28 41 52 46 52 4 0 19 17 33 38 13 20 41 54 61 76 20 21 36 42 36 47 0
5 16 26 36 46 60 64 61 70 12 99 -24 14 -106 60 -183 101 -77 42 -250 141
-384 221 -248 147 -260 152 -261 101 0 -54 -74 -181 -188 -324 -67 -83 -296
-315 -312 -315 -11 0 -60 -32 -94 -63 -31 -27 -33 0 -2 28 14 13 26 21 26 18
0 -4 21 14 46 40 25 26 49 47 54 47 4 0 13 12 19 28 21 49 36 69 50 64 9 -3
11 0 6 7 -4 7 3 22 17 35 30 30 58 68 58 79 0 4 14 28 30 52 17 24 30 51 30
59 0 9 3 16 8 16 8 0 70 125 77 156 2 10 10 39 16 64 21 84 6 143 -48 191 -10
9 -43 42 -74 75 -31 32 -85 84 -120 114 -119 104 -194 173 -273 252 -43 43
-82 78 -87 78 -5 0 -11 0 -14 0 -3 0 -6 -3 -6 -7 -7 -44 -128 -296 -181 -376
-21 -32 -38 -63 -38 -68 0 -5 -9 -14 -20 -21 -11 -7 -20 -16 -20 -21 0 -4 -20
-28 -45 -54 -25 -26 -43 -53 -41 -60 4 -9 -1 -13 -12 -11 -11 2 -18 -5 -20
-19 -2 -12 -9 -26 -16 -32 -9 -8 -12 -2 -11 27 0 20 5 44 10 52 29 45 34 60
19 60 -18 0 -18 27 0 61 8 16 10 32 5 41 -6 10 -1 22 16 38 19 17 25 34 25 63
0 24 7 48 16 59 10 10 18 35 19 55 3 46 14 83 26 83 7 0 21 52 21 77 0 5 9 26
21 48 11 22 19 41 18 43 -1 1 1 18 5 38 12 63 -13 152 -63 224 -63 92 -92 132
-111 155 -10 11 -28 36 -42 55 -13 19 -27 37 -30 40 -11 11 -70 99 -70 105 0
4 -11 18 -25 31 -14 13 -25 26 -25 29 0 16 -67 91 -78 87 -6 -2 -12 0 -12 5 0
8 -67 81 -111 121 l-26 23 -15 -43 c-9 -24 -35 -97 -58 -163 -23 -66 -55 -147
-70 -180 -15 -33 -33 -78 -41 -100 -8 -22 -19 -44 -25 -50 -7 -5 -15 -23 -18
-38 -4 -15 -11 -25 -15 -22 -5 3 -7 -5 -3 -17 4 -17 2 -20 -11 -15 -13 5 -17
1 -17 -18 0 -13 -6 -28 -12 -32 -18 -11 -47 -49 -30 -39 8 5 12 -1 12 -18 0
-14 -4 -26 -10 -26 -5 0 -10 5 -10 10 0 6 -5 10 -11 10 -6 0 -9 -6 -6 -13 3
-7 -2 -22 -10 -32 -15 -20 -15 -20 -10 0 17 64 19 88 6 96 -10 6 -3 9 20 9
l33 0 -3 58 c-3 84 -1 102 16 102 9 0 12 6 8 15 -5 14 -8 14 -26 -2 -11 -10
-17 -13 -14 -7 4 7 0 14 -8 17 -17 7 -10 70 11 105 8 12 16 39 18 60 2 20 19
84 39 142 103 308 129 436 107 532 -14 64 -18 73 -134 308 -51 102 -107 223
-125 270 -18 47 -42 105 -54 130 -11 25 -32 79 -47 120 -140 388 -175 448
-286 490 -67 24 -103 25 -171 1z m581 -2562 c-8 -13 -24 -1 -24 18 0 13 3 13
15 3 8 -7 12 -16 9 -21z m9816 21 c0 -5 -7 -10 -15 -10 -8 0 -15 5 -15 10 0 6
7 10 15 10 8 0 15 -4 15 -10z m-9860 -30 c0 -5 -5 -10 -11 -10 -5 0 -7 5 -4
10 3 6 8 10 11 10 2 0 4 -4 4 -10z m10 -32 c0 -4 -4 -16 -10 -26 -5 -9 -18
-39 -30 -66 -14 -35 -24 -46 -31 -39 -8 8 -8 17 1 32 6 12 9 30 5 40 -6 21 19
46 36 36 7 -5 9 -1 5 12 -4 14 -2 20 9 20 8 0 15 -4 15 -9z m-91 -183 l0 -20
-9 20 c-5 11 -9 27 -9 35 -1 13 0 13 9 0 5 -8 9 -24 9 -35z m881 -510 c0 -8
-4 -15 -10 -15 -5 0 -7 7 -4 15 4 8 8 15 10 15 2 0 4 -7 4 -15z m-4890 -205
c0 -5 -18 -10 -40 -10 -22 0 -40 5 -40 10 0 6 18 10 40 10 22 0 40 -4 40 -10z
m-417 -117 c-13 -2 -33 -2 -45 0 -13 2 -3 4 22 4 25 0 35 -2 23 -4z m977 -53
c0 -5 -18 -10 -40 -10 -22 0 -40 5 -40 10 0 6 18 10 40 10 22 0 40 -4 40 -10z
m13685 0 c-3 -5 -12 -10 -18 -10 -7 0 -6 4 3 10 19 12 23 12 15 0z m80 -40 c3
-5 1 -10 -4 -10 -6 0 -11 5 -11 10 0 6 2 10 4 10 3 0 8 -4 11 -10z m-14390
-436 c-93 -42 -165 -67 -171 -61 -3 2 10 10 28 16 18 7 48 19 66 27 18 8 39
14 47 14 8 0 15 4 15 8 0 4 15 13 33 19 67 22 59 11 -18 -23z m-195 -74 c0 -5
-7 -10 -16 -10 -8 0 -12 5 -9 10 3 6 10 10 16 10 5 0 9 -4 9 -10z m8205 -128
c-3 -3 -11 0 -18 7 -9 10 -8 11 6 5 10 -3 15 -9 12 -12z m3585 -512 c13 -9 13
-11 0 -20 -8 -5 -21 -10 -28 -10 -7 0 -11 -4 -8 -8 3 -5 -20 -14 -52 -21 -97
-21 -389 -100 -557 -151 -398 -121 -594 -177 -715 -205 -89 -21 -340 -89 -425
-115 -174 -54 -509 -141 -528 -137 -18 3 -16 5 7 6 20 1 27 5 23 15 -4 10 -1
13 7 10 7 -3 37 6 67 19 101 46 245 90 724 222 94 26 238 69 320 95 319 103
411 131 430 132 51 0 86 10 82 22 -4 9 2 11 18 8 13 -2 68 10 122 26 54 17
111 33 126 36 15 4 25 11 22 16 -4 6 14 11 42 12 26 0 53 2 58 3 6 2 21 4 35
5 23 1 23 2 5 9 -21 9 -10 12 115 30 80 12 93 12 110 1z m3454 -49 c4 -5 -1
-8 -9 -7 -21 3 -31 16 -12 16 9 0 18 -4 21 -9z m-9504 -191 c0 -5 -7 -10 -16
-10 -8 0 -12 5 -9 10 3 6 10 10 16 10 5 0 9 -4 9 -10z m7606 -606 c0 -5 4 -17
8 -26 4 -9 6 -27 4 -40 -3 -20 -20 -29 -123 -65 -271 -94 -634 -209 -830 -263
-104 -28 -234 -66 -310 -91 -154 -49 -227 -69 -235 -64 -5 3 -10 1 -12 -5 -2
-6 -30 -12 -63 -15 -33 -2 -61 -9 -63 -15 -2 -5 -10 -10 -18 -10 -8 0 -22 -4
-32 -9 -9 -5 -64 -24 -122 -42 -58 -18 -109 -35 -115 -38 -9 -5 -114 -35 -215
-62 -25 -6 -66 -18 -92 -25 -26 -8 -61 -14 -78 -14 -18 0 -29 -4 -25 -10 3 -5
0 -10 -8 -10 -8 0 -28 -7 -43 -15 -16 -8 -39 -15 -51 -15 -13 0 -40 -6 -60
-14 -21 -8 -69 -23 -108 -35 -38 -11 -115 -33 -170 -50 -55 -16 -152 -43 -215
-60 -63 -17 -131 -36 -150 -41 -67 -20 -172 -41 -177 -36 -5 4 140 56 242 85
33 10 67 21 75 24 41 16 102 27 125 21 16 -4 25 -2 25 6 0 6 -5 8 -12 4 -7 -4
-8 -3 -4 4 4 6 13 9 21 5 23 -8 67 6 59 19 -5 8 2 9 22 5 17 -3 36 0 47 8 11
8 25 11 33 8 8 -3 22 -2 32 2 16 7 15 8 -3 16 -18 8 -18 9 4 5 12 -3 33 -1 45
4 11 5 49 14 83 21 38 8 58 16 50 21 -7 5 1 8 21 8 18 0 40 4 50 9 47 25 173
72 217 81 27 6 52 16 56 21 3 5 23 13 45 16 21 3 44 13 50 21 6 8 34 17 65 20
42 4 49 7 34 14 -14 6 -10 7 14 3 19 -3 32 -2 28 2 -10 9 70 43 103 43 16 0
35 6 42 13 7 8 115 46 238 86 124 40 290 95 370 123 80 28 246 86 370 128 242
84 319 112 335 121 6 4 28 10 50 14 22 4 49 12 60 18 11 6 25 12 30 13 6 0 12
2 15 3 3 2 14 4 25 6 11 2 47 13 80 25 99 35 159 44 161 24z m359 -74 c3 -5 2
-10 -4 -10 -5 0 -13 5 -16 10 -3 6 -2 10 4 10 5 0 13 -4 16 -10z m1130 -540
c66 -23 129 -46 140 -51 11 -5 52 -20 90 -33 39 -13 133 -47 210 -76 77 -29
199 -70 270 -91 72 -22 159 -49 195 -60 83 -27 193 -56 297 -79 166 -38 468
-128 638 -191 61 -22 160 -56 220 -75 61 -19 223 -72 360 -118 138 -46 269
-89 292 -96 23 -7 40 -17 37 -21 -3 -5 14 -9 38 -10 24 0 37 -3 29 -6 -11 -5
-11 -7 0 -14 25 -15 -10 -11 -70 10 -31 10 -94 30 -141 44 -190 58 -259 79
-350 112 -52 18 -162 56 -245 83 -82 28 -208 70 -280 95 -245 83 -452 141
-550 152 -108 13 -769 241 -1115 385 -41 17 -102 41 -135 52 -33 11 -64 25
-70 30 -12 11 -21 13 140 -42z m1247 -459 c8 -10 31 -24 53 -30 29 -7 46 -20
60 -43 10 -18 25 -39 32 -46 13 -14 17 -30 13 -69 -1 -15 16 -39 50 -73 52
-51 60 -71 21 -51 -12 7 -22 7 -26 2 -3 -5 3 -12 14 -16 11 -3 22 -13 25 -21
3 -9 3 -14 -1 -12 -5 2 -25 12 -45 21 -45 21 -48 32 -10 45 25 9 24 10 -15 9
-24 -1 -37 -5 -30 -9 7 -4 8 -8 2 -8 -10 0 -95 55 -105 68 -3 4 -17 12 -31 19
-19 8 -29 25 -44 74 -32 110 -48 96 -23 -21 13 -63 -2 -112 -36 -118 -10 -2
-50 -24 -88 -48 -37 -24 -72 -44 -77 -44 -5 0 -32 -15 -60 -32 -185 -119 -238
-155 -256 -171 -11 -11 -72 -56 -135 -102 -64 -46 -152 -112 -195 -147 -118
-94 -504 -383 -665 -499 -30 -22 -92 -67 -137 -99 -50 -37 -92 -60 -108 -60
-14 0 -24 -4 -20 -9 3 -5 1 -12 -5 -16 -5 -3 -10 1 -10 10 0 15 -1 15 -16 1
-20 -21 -27 -20 -15 2 5 9 53 51 106 92 54 41 102 80 109 85 6 6 76 60 156
120 673 508 810 619 1070 868 123 118 217 196 325 270 22 15 49 38 60 51 24
30 40 32 57 7z m366 -390 c24 -13 30 -31 9 -31 -16 0 -58 46 -49 54 3 4 8 2
11 -2 3 -5 16 -14 29 -21z m77 -51 c3 -6 -1 -7 -9 -4 -18 7 -21 14 -7 14 6 0
13 -4 16 -10z m-38 -6 c-3 -3 -12 -4 -19 -1 -8 3 -5 6 6 6 11 1 17 -2 13 -5z
m87 -25 c-8 -13 -24 -1 -24 18 0 13 3 13 15 3 8 -7 12 -16 9 -21z m1137 2
c-12 -8 -9 -11 12 -17 16 -3 26 -9 23 -11 -3 -3 -22 1 -43 8 -32 10 -35 13
-18 20 28 11 43 10 26 0z m79 -21 c0 -5 -7 -7 -15 -4 -8 4 -15 8 -15 10 0 2 7
4 15 4 8 0 15 -4 15 -10z m-1171 -36 c19 -14 25 -14 32 -3 7 11 9 11 9 -3 0
-10 16 -24 40 -34 22 -10 38 -20 35 -22 -3 -3 3 -11 13 -18 9 -7 12 -14 5 -14
-6 0 -18 7 -27 15 -8 8 -45 31 -83 51 -78 41 -82 44 -62 44 8 0 25 -7 38 -16z
m185 -109 c11 -8 17 -17 14 -21 -8 -8 -48 14 -48 26 0 14 12 12 34 -5z m1386
-5 c8 -5 11 -10 5 -10 -5 0 -17 5 -25 10 -8 5 -10 10 -5 10 6 0 17 -5 25 -10z
m-1340 -40 c0 -5 -7 -7 -15 -4 -8 4 -15 8 -15 10 0 2 7 4 15 4 8 0 15 -4 15
-10z m40 -21 c0 -5 4 -7 10 -4 12 7 76 -39 84 -61 7 -18 -18 -6 -55 28 -15 12
-33 24 -40 26 -23 6 -35 22 -16 22 9 0 17 -5 17 -11z m187 -115 c-3 -3 -12 -4
-19 -1 -8 3 -5 6 6 6 11 1 17 -2 13 -5z"/>
<path d="M12238 2253 c7 -3 16 -2 19 1 4 3 -2 6 -13 5 -11 0 -14 -3 -6 -6z"/>
<path d="M12098 2173 c7 -3 16 -2 19 1 4 3 -2 6 -13 5 -11 0 -14 -3 -6 -6z"/>
<path d="M15767 7910 c-19 -41 -55 -118 -80 -170 -97 -207 -112 -238 -154
-308 -24 -41 -43 -78 -43 -82 0 -5 -6 -13 -13 -17 -31 -20 -48 -112 -28 -151
16 -28 23 -55 26 -95 2 -21 9 -44 15 -52 6 -8 18 -42 26 -77 18 -79 64 -230
74 -243 4 -5 10 -26 13 -45 5 -37 31 -113 47 -142 6 -10 10 -25 10 -33 0 -9 9
-33 20 -54 10 -21 17 -41 14 -44 -3 -3 1 -18 10 -35 8 -16 12 -32 9 -36 -4 -3
-1 -6 5 -6 7 0 12 -5 12 -11 0 -10 33 -90 50 -121 6 -10 10 -25 10 -34 0 -10
11 -36 24 -58 13 -23 31 -65 40 -95 9 -30 29 -77 44 -105 16 -28 27 -57 25
-63 -3 -7 0 -13 5 -13 5 0 22 -25 37 -55 16 -30 32 -55 36 -55 4 0 10 -12 14
-27 3 -15 15 -36 26 -48 38 -39 109 -126 109 -133 0 -8 86 -98 119 -124 11
-10 32 -18 45 -18 21 0 24 5 28 52 3 28 2 63 -2 77 l-8 26 -1 -24 c-1 -31 -13
-18 -30 32 -12 37 -8 77 10 77 5 0 9 6 9 14 0 7 11 25 25 40 19 20 21 26 8 26
-9 0 -13 3 -10 7 11 10 88 4 103 -8 7 -6 30 -45 51 -87 21 -43 72 -124 113
-182 41 -58 84 -123 95 -145 11 -22 36 -57 55 -78 l35 -39 90 7 c49 4 95 11
102 17 7 6 19 5 32 -3 15 -10 25 -10 43 -2 31 16 80 14 93 -4 9 -12 13 -11 30
4 21 21 67 20 85 -2 7 -9 6 -16 -5 -25 -12 -10 -16 -9 -21 4 -8 21 -36 20 -50
-2 -10 -16 -7 -18 35 -20 25 -1 47 -6 49 -12 2 -5 9 -10 16 -10 7 0 21 -16 32
-35 10 -19 27 -38 36 -41 10 -3 16 -10 13 -15 -4 -5 3 -9 14 -9 11 0 28 -11
39 -25 11 -14 25 -25 30 -25 6 0 17 -8 24 -18 13 -20 139 -82 163 -82 8 0 19
-9 25 -20 11 -21 84 -63 93 -54 8 9 48 -16 42 -26 -3 -5 4 -12 16 -15 17 -6
18 -9 8 -16 -11 -6 -10 -9 4 -15 9 -3 17 -11 17 -18 0 -13 35 -46 49 -46 5 0
7 9 4 20 -6 22 7 26 24 9 8 -8 13 -8 17 0 12 18 36 12 36 -9 0 -11 -4 -20 -10
-20 -5 0 -10 -9 -10 -20 0 -25 16 -26 32 -1 12 19 13 19 35 -5 13 -14 29 -23
36 -21 6 2 21 -3 32 -13 22 -19 102 -50 128 -50 9 0 17 -4 17 -9 0 -5 18 -12
40 -16 22 -4 40 -11 40 -15 0 -5 10 -10 23 -12 12 -2 26 -13 32 -25 11 -26 25
-30 25 -7 0 8 5 12 10 9 8 -5 7 -11 -1 -21 -15 -18 -11 -22 31 -29 19 -3 47
-15 62 -25 15 -11 34 -20 43 -20 8 0 15 -7 15 -15 0 -9 6 -12 16 -8 9 3 20 0
25 -8 7 -12 12 -12 30 -1 11 7 24 11 27 8 3 -3 0 -6 -6 -6 -7 0 -12 -9 -12
-19 0 -15 10 -21 40 -26 26 -4 41 -13 45 -26 8 -24 24 -24 41 -1 12 16 13 15
14 -5 0 -25 16 -39 23 -21 3 10 10 8 25 -5 14 -13 33 -18 59 -16 23 2 37 -1
36 -8 -1 -6 6 -9 17 -6 15 4 20 0 20 -16 0 -24 3 -25 30 -9 15 10 22 9 38 -5
10 -9 45 -26 77 -37 33 -11 69 -30 82 -42 13 -12 26 -18 30 -15 3 4 1 7 -5 7
-7 0 -12 5 -12 11 0 6 17 1 38 -11 20 -13 46 -23 57 -24 24 -1 60 -25 68 -46
4 -11 6 -11 6 4 1 13 6 16 19 11 9 -4 25 -10 35 -12 18 -6 24 -23 7 -23 -5 0
-10 -16 -10 -36 0 -29 3 -34 18 -30 30 9 87 10 99 3 6 -4 14 -3 18 3 7 12 25
13 25 2 0 -4 -13 -13 -30 -19 -46 -17 -36 -52 13 -44 22 4 45 -20 40 -41 -4
-21 -3 -22 10 -5 8 9 20 17 26 17 7 0 9 4 6 10 -3 5 -15 10 -26 10 -11 0 -19
7 -19 16 0 13 7 15 31 10 17 -3 35 -6 40 -6 5 0 9 -7 9 -15 0 -8 9 -15 20 -15
30 0 24 -17 -11 -29 -33 -11 -35 -34 -3 -39 10 -2 29 -8 42 -15 19 -9 25 -8
32 3 6 8 10 11 11 5 9 -66 21 -95 39 -95 10 0 22 9 25 21 6 19 8 19 25 4 12
-11 26 -14 39 -10 12 4 21 2 21 -4 0 -6 18 -11 40 -11 29 0 40 -4 40 -15 0
-11 11 -15 40 -15 22 0 40 -4 40 -10 0 -5 18 -10 40 -10 25 0 40 -5 40 -13 0
-17 43 -43 48 -28 6 19 56 13 70 -9 7 -12 24 -25 38 -31 18 -6 24 -14 20 -25
-5 -13 -1 -15 20 -10 21 6 25 4 21 -8 -4 -9 1 -19 10 -24 10 -6 14 -17 10 -31
-3 -13 0 -21 8 -21 8 0 11 7 8 19 -8 30 16 35 27 7 5 -14 16 -26 25 -26 13 0
15 32 15 246 0 151 -4 243 -9 239 -6 -3 -34 10 -64 29 -77 49 -151 82 -482
213 -385 152 -560 227 -980 418 -17 8 -96 43 -175 78 -199 89 -362 164 -575
268 -156 75 -402 221 -581 345 -200 139 -352 287 -575 559 -90 110 -168 205
-174 211 -5 6 -21 26 -35 44 -14 18 -37 48 -51 66 -25 31 -193 277 -214 312
-5 9 -12 19 -15 22 -3 3 -25 39 -50 80 -24 41 -62 103 -84 137 -110 166 -162
256 -264 458 -70 140 -102 208 -102 218 0 3 -16 41 -37 84 -20 43 -46 101 -58
128 -13 28 -34 75 -48 105 -46 101 -75 175 -80 205 -2 17 -6 37 -10 45 -3 8
-7 22 -10 30 -2 8 -20 -18 -40 -60z m1383 -2705 c0 -3 -9 -5 -20 -5 -11 0 -20
7 -20 15 0 13 4 14 20 5 11 -6 20 -13 20 -15z m2324 -1234 c3 -5 -3 -11 -14
-14 -13 -3 -20 0 -20 9 0 15 26 19 34 5z m381 -201 c3 -5 -3 -10 -15 -10 -12
0 -18 5 -15 10 3 6 10 10 15 10 5 0 12 -4 15 -10z m65 -10 c0 -5 -5 -10 -11
-10 -5 0 -7 5 -4 10 3 6 8 10 11 10 2 0 4 -4 4 -10z"/>
<path d="M14700 6106 c0 -9 7 -16 16 -16 17 0 14 22 -4 28 -7 2 -12 -3 -12
-12z"/>
<path d="M14717 6059 c-4 -15 -1 -19 11 -17 21 4 29 38 9 38 -8 0 -17 -9 -20
-21z"/>
<path d="M16326 5591 c-4 -7 -5 -15 -2 -18 9 -9 19 4 14 18 -4 11 -6 11 -12 0z"/>
<path d="M16880 5109 c0 -5 5 -7 10 -4 6 3 10 8 10 11 0 2 -4 4 -10 4 -5 0
-10 -5 -10 -11z"/>
<path d="M1533 5043 c9 -2 23 -2 30 0 6 3 -1 5 -18 5 -16 0 -22 -2 -12 -5z"/>
<path d="M14678 5033 c7 -3 16 -2 19 1 4 3 -2 6 -13 5 -11 0 -14 -3 -6 -6z"/>
<path d="M1535 4820 c-3 -5 1 -10 9 -10 8 0 18 5 21 10 3 6 -1 10 -9 10 -8 0
-18 -4 -21 -10z"/>
<path d="M18001 4604 c0 -11 3 -14 6 -6 3 7 2 16 -1 19 -3 4 -6 -2 -5 -13z"/>
<path d="M19565 4576 c17 -7 48 -18 70 -25 22 -7 209 -68 416 -137 207 -68
388 -124 403 -124 41 0 31 25 -12 27 -20 1 -118 29 -217 62 -164 56 -530 172
-631 200 -54 15 -66 13 -29 -3z"/>
<path d="M14317 4149 c7 -7 15 -10 18 -7 3 3 -2 9 -12 12 -14 6 -15 5 -6 -5z"/>
<path d="M19425 3890 c3 -5 8 -10 11 -10 2 0 4 5 4 10 0 6 -5 10 -11 10 -5 0
-7 -4 -4 -10z"/>
<path d="M19408 3843 c7 -3 16 -2 19 1 4 3 -2 6 -13 5 -11 0 -14 -3 -6 -6z"/>
<path d="M19455 3820 c27 -12 35 -12 35 0 0 6 -12 10 -27 9 -25 0 -26 -1 -8
-9z"/>
<path d="M19565 3771 c-12 -12 -2 -29 22 -40 19 -9 29 -9 31 -2 5 14 39 14 47
1 3 -5 26 -10 51 -10 32 0 44 4 44 15 0 15 -44 21 -110 16 -20 -1 -22 0 -10 9
12 9 12 10 -5 7 -11 -2 -19 -9 -17 -15 2 -13 -10 -16 -21 -5 -4 3 -2 12 4 19
8 10 6 12 -11 11 -11 -1 -23 -3 -25 -6z"/>
<path d="M19880 3675 c0 -2 10 -10 23 -16 20 -11 21 -11 8 4 -13 16 -31 23
-31 12z"/>
<path d="M19886 3615 c4 -8 8 -15 10 -15 2 0 4 7 4 15 0 8 -4 15 -10 15 -5 0
-7 -7 -4 -15z"/>
<path d="M19958 3583 c7 -3 16 -2 19 1 4 3 -2 6 -13 5 -11 0 -14 -3 -6 -6z"/>
<path d="M15560 3380 c-417 -113 -971 -289 -1117 -356 -17 -8 -35 -14 -41 -14
-5 0 -31 -9 -58 -19 -27 -11 -116 -43 -197 -72 -95 -34 -143 -55 -134 -60 18
-11 104 11 267 66 274 94 432 141 755 225 110 28 218 58 240 65 22 8 76 24
120 36 178 48 318 110 313 138 -5 24 -33 22 -148 -9z"/>
</g>
</svg>
