<svg width="250" height="60" viewBox="0 0 250 60" fill="none" xmlns="http://www.w3.org/2000/svg">
<path fill-rule="evenodd" clip-rule="evenodd" d="M53.5337 45.9508C48.7765 52.066 41.3477 56 33 56C18.6406 56 7 44.3594 7 30C7 15.6406 18.6406 4 33 4C42.1743 4 50.2388 8.75171 54.8667 15.9283L51.5505 18.2312C47.6952 12.1384 40.8967 8.09283 33.1533 8.09283C21.1383 8.09283 11.3982 17.8329 11.3982 29.8479C11.3982 41.8629 21.1383 51.603 33.1533 51.603C39.9362 51.603 45.9941 48.4988 49.9839 43.6336L53.5337 45.9508ZM33.4186 13.9296C39.1096 13.9296 44.0913 16.9667 46.8312 21.5085L41.8589 24.9615C40.2389 21.993 37.0894 19.9792 33.4695 19.9792C28.1946 19.9792 23.9185 24.2554 23.9185 29.5303C23.9185 34.8052 28.1946 39.0813 33.4695 39.0813C35.8028 39.0813 37.9407 38.2446 39.5995 36.8549L44.8462 40.2798C41.99 43.3298 37.9269 45.2357 33.4186 45.2357C24.7736 45.2357 17.7655 38.2276 17.7655 29.5826C17.7655 20.9377 24.7736 13.9296 33.4186 13.9296Z" fill="#8C89A2"/>
<path d="M193.843 28.0811C192.571 28.0811 191.476 27.798 190.558 27.2319C189.646 26.6598 188.943 25.8518 188.45 24.808C187.956 23.7582 187.709 22.5168 187.709 21.0837C187.709 19.686 187.956 18.4593 188.45 17.4036C188.943 16.3479 189.638 15.5253 190.535 14.9355C191.436 14.3457 192.493 14.0508 193.706 14.0508C194.521 14.0508 195.281 14.1953 195.984 14.4843C196.692 14.7674 197.309 15.195 197.835 15.767C198.367 16.3391 198.78 17.0586 199.075 17.9256C199.37 18.7866 199.518 19.7951 199.518 20.951V21.986H189.078V19.6505H196.29C196.29 19.108 196.182 18.6273 195.968 18.2086C195.753 17.7899 195.455 17.4626 195.074 17.2267C194.699 16.9849 194.261 16.864 193.762 16.864C193.242 16.864 192.78 16.9967 192.378 17.262C191.98 17.5215 191.669 17.8725 191.444 18.3148C191.218 18.7512 191.103 19.2377 191.098 19.7744V21.9948C191.098 22.6672 191.211 23.2481 191.436 23.7376C191.667 24.2271 191.992 24.6045 192.41 24.8699C192.828 25.1353 193.325 25.268 193.899 25.268C194.28 25.268 194.629 25.209 194.945 25.091C195.262 24.9731 195.533 24.7962 195.759 24.5603C195.984 24.3244 196.156 24.0354 196.274 23.6933L199.445 23.9233C199.284 24.7608 198.954 25.4921 198.455 26.1172C197.961 26.7365 197.323 27.22 196.539 27.568C195.761 27.9101 194.862 28.0811 193.843 28.0811Z" fill="#8C89A2"/>
<path d="M188.271 14.0508L183.802 28.0811H179.807L175.338 14.0508H179.083L181.738 24.0894H181.871L184.518 14.0508H188.271Z" fill="#8C89A2"/>
<path d="M142.162 28.6424V14.6121H145.65V17.2237H145.785C146.022 16.3652 146.419 15.7168 146.976 15.2785C147.534 14.8342 148.176 14.6121 148.902 14.6121C149.083 14.6121 149.277 14.6241 149.485 14.6482C149.693 14.6722 149.877 14.7052 150.034 14.7472V18.1512C149.866 18.0972 149.632 18.0491 149.333 18.0071C149.034 17.9651 148.762 17.9441 148.514 17.9441C147.985 17.9441 147.512 18.0672 147.095 18.3133C146.683 18.5534 146.357 18.8897 146.115 19.3219C145.878 19.7542 145.76 20.2525 145.76 20.8168V28.6424H142.162Z" fill="#8C89A2"/>
<path d="M106.617 28.6424C105.776 28.6424 105.026 28.4919 104.367 28.191C103.709 27.8841 103.188 27.4326 102.804 26.8366C102.426 26.2347 102.238 25.4852 102.238 24.5882C102.238 23.8329 102.372 23.1985 102.641 22.6851C102.91 22.1716 103.277 21.7586 103.74 21.4458C104.204 21.133 104.731 20.897 105.321 20.7376C105.916 20.5783 106.54 20.4662 107.193 20.4013C107.96 20.3186 108.578 20.2419 109.048 20.1711C109.517 20.0944 109.858 19.9823 110.07 19.8347C110.282 19.6872 110.388 19.4688 110.388 19.1797V19.1266C110.388 18.566 110.216 18.1322 109.872 17.8253C109.535 17.5185 109.054 17.3651 108.43 17.3651C107.771 17.3651 107.247 17.5155 106.858 17.8165C106.469 18.1116 106.211 18.4834 106.085 18.9319L102.701 18.6486C102.873 17.8224 103.211 17.1083 103.715 16.5064C104.219 15.8986 104.868 15.4324 105.664 15.1078C106.466 14.7773 107.393 14.6121 108.447 14.6121C109.18 14.6121 109.881 14.7006 110.551 14.8777C111.226 15.0547 111.825 15.3291 112.346 15.7009C112.872 16.0727 113.288 16.5507 113.591 17.1349C113.894 17.7133 114.046 18.4066 114.046 19.2151V28.3857H110.577V26.5003H110.473C110.262 26.9251 109.978 27.2999 109.623 27.6244C109.268 27.9431 108.842 28.1939 108.344 28.3768C107.846 28.5539 107.27 28.6424 106.617 28.6424ZM107.665 26.0399C108.203 26.0399 108.679 25.9307 109.091 25.7124C109.503 25.4882 109.827 25.1872 110.061 24.8095C110.296 24.4319 110.413 24.004 110.413 23.526V22.0831C110.299 22.1598 110.141 22.2307 109.941 22.2956C109.746 22.3546 109.526 22.4107 109.28 22.4637C109.034 22.511 108.787 22.5552 108.541 22.5965C108.295 22.6319 108.072 22.6644 107.871 22.6939C107.442 22.7588 107.067 22.8621 106.746 23.0037C106.426 23.1453 106.177 23.3372 105.999 23.5791C105.822 23.8151 105.733 24.1102 105.733 24.4643C105.733 24.9777 105.913 25.3701 106.274 25.6416C106.64 25.9072 107.104 26.0399 107.665 26.0399Z" fill="#8C89A2"/>
<path d="M154.414 28.6424C153.572 28.6424 152.823 28.4919 152.164 28.191C151.506 27.8841 150.984 27.4326 150.601 26.8366C150.223 26.2347 150.034 25.4852 150.034 24.5882C150.034 23.8329 150.169 23.1985 150.438 22.6851C150.707 22.1716 151.073 21.7586 151.537 21.4458C152.001 21.133 152.527 20.897 153.117 20.7376C153.713 20.5783 154.337 20.4662 154.989 20.4013C155.757 20.3186 156.375 20.2419 156.844 20.1711C157.314 20.0944 157.655 19.9823 157.867 19.8347C158.078 19.6872 158.184 19.4688 158.184 19.1797V19.1266C158.184 18.566 158.012 18.1322 157.669 17.8253C157.331 17.5185 156.85 17.3651 156.226 17.3651C155.568 17.3651 155.044 17.5155 154.655 17.8165C154.265 18.1116 154.007 18.4834 153.882 18.9319L150.498 18.6486C150.67 17.8224 151.008 17.1083 151.511 16.5064C152.015 15.8986 152.665 15.4324 153.461 15.1078C154.262 14.7773 155.19 14.6121 156.243 14.6121C156.976 14.6121 157.678 14.7006 158.347 14.8777C159.023 15.0547 159.621 15.3291 160.142 15.7009C160.669 16.0727 161.084 16.5507 161.388 17.1349C161.691 17.7133 161.843 18.4066 161.843 19.2151V28.3857H158.373V26.5003H158.27C158.058 26.9251 157.775 27.2999 157.42 27.6244C157.065 27.9431 156.639 28.1939 156.14 28.3768C155.642 28.5539 155.067 28.6424 154.414 28.6424ZM155.462 26.0399C156 26.0399 156.475 25.9307 156.888 25.7124C157.3 25.4882 157.623 25.1872 157.858 24.8095C158.093 24.4319 158.21 24.004 158.21 23.526V22.0831C158.096 22.1598 157.938 22.2307 157.738 22.2956C157.543 22.3546 157.322 22.4107 157.077 22.4637C156.83 22.511 156.584 22.5552 156.338 22.5965C156.091 22.6319 155.868 22.6644 155.668 22.6939C155.238 22.7588 154.863 22.8621 154.543 23.0037C154.222 23.1453 153.973 23.3372 153.795 23.5791C153.618 23.8151 153.53 24.1102 153.53 24.4643C153.53 24.9777 153.71 25.3701 154.07 25.6416C154.437 25.9072 154.901 26.0399 155.462 26.0399Z" fill="#8C89A2"/>
<path d="M96.6144 9.56122V28.6424H93.2405V9.56122H96.6144Z" fill="#8C89A2"/>
<path d="M101.113 9.56122V28.6424H97.7388V9.56122H101.113Z" fill="#8C89A2"/>
<path d="M115.17 28.6424L115.197 9.56122H118.708L118.706 17.0461H118.813C118.967 16.6783 119.19 16.3045 119.481 15.9248C119.778 15.5391 120.162 15.2187 120.634 14.9636C121.113 14.7026 121.706 14.572 122.415 14.572C123.338 14.572 124.189 14.8331 124.97 15.3552C125.75 15.8714 126.374 16.6516 126.841 17.6958C127.308 18.7341 127.541 20.0364 127.541 21.6028C127.541 23.1276 127.313 24.4151 126.857 25.4652C126.407 26.5094 125.791 27.3015 125.011 27.8414C124.237 28.3754 123.368 28.6424 122.407 28.6424C121.725 28.6424 121.146 28.5208 120.668 28.2775C120.195 28.0343 119.808 27.7287 119.506 27.3609C119.203 26.987 118.973 26.6103 118.813 26.2306H118.657L118.632 28.6424H115.17ZM118.632 21.585C118.632 22.3978 118.736 23.1068 118.945 23.712C119.154 24.3171 119.456 24.7888 119.852 25.127C120.248 25.4593 120.728 25.6254 121.294 25.6254C121.865 25.6254 122.349 25.4563 122.745 25.1182C123.14 24.774 123.44 24.2993 123.643 23.6942C123.852 23.0831 123.956 22.38 123.956 21.585C123.956 20.7959 123.854 20.1017 123.651 19.5025C123.448 18.9032 123.149 18.4345 122.753 18.0963C122.357 17.7581 121.871 17.589 121.294 17.589C120.723 17.589 120.239 17.7522 119.843 18.0785C119.453 18.4048 119.154 18.8676 118.945 19.4669C118.736 20.0661 118.632 20.7721 118.632 21.585Z" fill="#8C89A2"/>
<path d="M170.974 28.0812V14.0509H174.546V28.0812H170.974ZM172.768 12.6076C172.238 12.6076 171.781 12.4318 171.401 12.0803C171.027 11.7231 170.84 11.2963 170.84 10.7996C170.84 10.3086 171.027 9.88726 171.401 9.5357C171.781 9.17857 172.238 9 172.768 9C173.3 9 173.752 9.17857 174.127 9.5357C174.508 9.88726 174.698 10.3086 174.698 10.7996C174.698 11.2963 174.508 11.7231 174.127 12.0803C173.752 12.4318 173.3 12.6076 172.768 12.6076Z" fill="#8C89A2"/>
<path d="M170.162 14.0083V17.4182H162.405V14.0083H170.162ZM164.166 10.6837H167.739V23.621C167.739 23.9764 167.789 24.2535 167.89 24.4522C167.99 24.645 168.13 24.7805 168.309 24.8588C168.494 24.9371 168.706 24.9762 168.947 24.9762C169.114 24.9762 169.282 24.9611 169.449 24.9311C169.852 24.8588 170.277 24.6157 170.277 24.6157V27.6444C170.277 27.6444 169.922 27.8487 169.642 27.9215C169.318 28.0058 168.924 28.057 168.46 28.0751C167.599 28.1112 166.844 27.9878 166.195 27.7046C165.553 27.4215 165.052 26.9819 164.695 26.3856C164.336 25.7893 164.16 25.0365 164.166 24.127V10.6837Z" fill="#8C89A2"/>
<path d="M78.6202 16.6801H75.1456C75.0821 16.1813 74.9526 15.7383 74.7569 15.351C74.5612 14.9578 74.31 14.6233 74.0033 14.3475C73.6965 14.0717 73.3422 13.8605 72.9403 13.7138C72.5436 13.5671 72.1126 13.4937 71.6472 13.4937C70.8064 13.4937 70.0739 13.7255 69.4498 14.1891C68.8258 14.6468 68.3419 15.3158 67.9981 16.196C67.6544 17.0703 67.4825 18.1325 67.4825 19.3824C67.4825 20.6675 67.6544 21.7473 67.9981 22.6217C68.3472 23.496 68.8337 24.1562 69.4578 24.6022C70.0818 25.0481 70.8037 25.2711 71.6234 25.2711C72.0835 25.2711 72.5093 25.2036 72.9006 25.0687C73.2972 24.9337 73.6489 24.7372 73.9557 24.4789C74.2624 24.2148 74.5163 23.8951 74.7172 23.5195C74.9235 23.1439 75.0663 22.7156 75.1456 22.2343L78.6202 22.2519C78.5302 23.0794 78.3055 23.8774 77.9459 24.6462C77.5915 25.409 77.1129 26.0926 76.51 26.6971C75.9125 27.2957 75.1985 27.7709 74.3682 28.1231C73.5431 28.4693 72.6098 28.6424 71.5679 28.6424C70.1188 28.6424 68.8231 28.2786 67.6808 27.5509C66.5438 26.8233 65.6447 25.7699 64.9837 24.3909C64.3279 23.0119 64 21.3424 64 19.3824C64 17.4166 64.3332 15.7441 64.9995 14.3651C65.6659 12.9861 66.5702 11.9357 67.7126 11.2139C68.8549 10.4863 70.14 10.1224 71.5679 10.1224C72.5093 10.1224 73.3819 10.2691 74.1857 10.5625C74.9949 10.856 75.7115 11.2843 76.3355 11.8477C76.9595 12.4052 77.4672 13.0888 77.8586 13.8986C78.2553 14.7084 78.5091 15.6356 78.6202 16.6801Z" fill="#8C89A2"/>
<path d="M85.9301 28.6423C84.6592 28.6423 83.5601 28.3387 82.6328 27.7315C81.711 27.1182 80.9992 26.2656 80.4973 25.1739C79.9955 24.076 79.7446 22.8033 79.7446 21.3558C79.7446 19.896 79.9955 18.6203 80.4973 17.5285C80.9992 16.4306 81.711 15.5781 82.6328 14.9708C83.5601 14.3575 84.6592 14.0508 85.9301 14.0508C87.201 14.0508 88.2974 14.3575 89.2192 14.9708C90.1464 15.5781 90.861 16.4306 91.3628 17.5285C91.8646 18.6203 92.1155 19.896 92.1155 21.3558C92.1155 22.8033 91.8646 24.076 91.3628 25.1739C90.861 26.2656 90.1464 27.1182 89.2192 27.7315C88.2974 28.3387 87.201 28.6423 85.9301 28.6423ZM85.9464 25.6063C86.5246 25.6063 87.0074 25.4223 87.3946 25.0543C87.7819 24.6801 88.0737 24.171 88.2701 23.527C88.4719 22.883 88.5728 22.1501 88.5728 21.3282C88.5728 20.5063 88.4719 19.7733 88.2701 19.1294C88.0737 18.4853 87.7819 17.9762 87.3946 17.6021C87.0074 17.228 86.5246 17.0409 85.9464 17.0409C85.3628 17.0409 84.8719 17.228 84.4737 17.6021C84.081 17.9762 83.7837 18.4853 83.5819 19.1294C83.3856 19.7733 83.2874 20.5063 83.2874 21.3282C83.2874 22.1501 83.3856 22.883 83.5819 23.527C83.7837 24.171 84.081 24.6801 84.4737 25.0543C84.8719 25.4223 85.3628 25.6063 85.9464 25.6063Z" fill="#8C89A2"/>
<path d="M134.852 28.6423C133.581 28.6423 132.482 28.3387 131.554 27.7315C130.633 27.1182 129.921 26.2656 129.419 25.1739C128.917 24.076 128.666 22.8033 128.666 21.3558C128.666 19.896 128.917 18.6203 129.419 17.5285C129.921 16.4306 130.633 15.5781 131.554 14.9708C132.482 14.3575 133.581 14.0508 134.852 14.0508C136.123 14.0508 137.219 14.3575 138.141 14.9708C139.068 15.5781 139.783 16.4306 140.284 17.5285C140.786 18.6203 141.037 19.896 141.037 21.3558C141.037 22.8033 140.786 24.076 140.284 25.1739C139.783 26.2656 139.068 27.1182 138.141 27.7315C137.219 28.3387 136.123 28.6423 134.852 28.6423ZM134.868 25.6063C135.446 25.6063 135.929 25.4223 136.316 25.0543C136.703 24.6801 136.995 24.171 137.191 23.527C137.393 22.883 137.495 22.1501 137.495 21.3282C137.495 20.5063 137.393 19.7733 137.191 19.1294C136.995 18.4853 136.703 17.9762 136.316 17.6021C135.929 17.228 135.446 17.0409 134.868 17.0409C134.284 17.0409 133.793 17.228 133.395 17.6021C133.003 17.9762 132.705 18.4853 132.503 19.1294C132.307 19.7733 132.209 20.5063 132.209 21.3282C132.209 22.1501 132.307 22.883 132.503 23.527C132.705 24.171 133.003 24.6801 133.395 25.0543C133.793 25.4223 134.284 25.6063 134.868 25.6063Z" fill="#8C89A2"/>
<path d="M128.961 52C127.689 52 126.595 51.7169 125.677 51.1508C124.765 50.5787 124.062 49.7707 123.568 48.7268C123.074 47.6771 122.828 46.4356 122.828 45.0025C122.828 43.6048 123.074 42.3781 123.568 41.3225C124.062 40.2668 124.757 39.4441 125.653 38.8544C126.555 38.2646 127.612 37.9697 128.825 37.9697C129.64 37.9697 130.4 38.1142 131.103 38.4032C131.811 38.6863 132.428 39.1139 132.954 39.6859C133.485 40.258 133.898 40.9775 134.194 41.8444C134.489 42.7054 134.636 43.7139 134.636 44.8699V45.9049H124.196V43.5694H131.409C131.409 43.0269 131.301 42.5462 131.086 42.1275C130.872 41.7088 130.574 41.3814 130.193 41.1456C129.817 40.9037 129.38 40.7829 128.881 40.7829C128.36 40.7829 127.899 40.9156 127.497 41.1809C127.099 41.4404 126.788 41.7913 126.563 42.2336C126.337 42.6701 126.222 43.1566 126.217 43.6933V45.9137C126.217 46.5861 126.329 47.167 126.555 47.6564C126.785 48.1459 127.11 48.5234 127.529 48.7888C127.947 49.0541 128.443 49.1869 129.018 49.1869C129.399 49.1869 129.747 49.1279 130.064 49.0099C130.381 48.892 130.652 48.7151 130.877 48.4792C131.103 48.2433 131.274 47.9543 131.392 47.6122L134.564 47.8422C134.403 48.6796 134.073 49.411 133.573 50.0361C133.08 50.6553 132.442 51.1389 131.658 51.4869C130.88 51.8289 129.981 52 128.961 52Z" fill="#8C89A2"/>
<path d="M113.447 43.993V52H109.894V38.15H113.28V40.5936H113.43C113.714 39.7881 114.189 39.151 114.856 38.6821C115.523 38.2072 116.332 37.9697 117.283 37.9697C118.173 37.9697 118.948 38.1801 119.61 38.6009C120.271 39.0217 120.786 39.6228 121.152 40.4043C121.52 41.1797 121.703 42.1055 121.703 43.1815V52H118.15V43.8668C118.156 43.0192 117.956 42.3579 117.55 41.883C117.144 41.4021 116.585 41.1617 115.874 41.1617C115.396 41.1617 114.973 41.2729 114.606 41.4953C114.245 41.7177 113.961 42.0424 113.755 42.4692C113.555 42.8899 113.452 43.3979 113.447 43.993Z" fill="#8C89A2"/>
<path d="M210.165 43.993V52H206.612V38.15H209.998V40.5936H210.148C210.432 39.7881 210.907 39.151 211.574 38.6821C212.242 38.2072 213.05 37.9697 214.001 37.9697C214.891 37.9697 215.666 38.1801 216.328 38.6009C216.989 39.0217 217.504 39.6228 217.87 40.4043C218.238 41.1797 218.421 42.1055 218.421 43.1815V52H214.868V43.8668C214.874 43.0192 214.674 42.3579 214.268 41.883C213.862 41.4021 213.303 41.1617 212.591 41.1617C212.113 41.1617 211.691 41.2729 211.324 41.4953C210.963 41.7177 210.679 42.0424 210.474 42.4692C210.274 42.8899 210.171 43.3979 210.165 43.993Z" fill="#8C89A2"/>
<path d="M201.922 45.9226V37.9697H205.488V52H202.065V49.3039H201.931C201.641 50.1155 201.158 50.7677 200.483 51.2606C199.813 51.7535 198.996 52 198.031 52C197.171 52 196.416 51.7896 195.763 51.3688C195.11 50.948 194.599 50.3499 194.231 49.5744C193.868 48.799 193.685 47.8703 193.679 46.7883V37.9697H197.244V46.103C197.25 46.9205 197.453 47.5667 197.855 48.0416C198.257 48.5164 198.795 48.7539 199.47 48.7539C199.9 48.7539 200.301 48.6487 200.675 48.4383C201.049 48.2219 201.351 47.9033 201.579 47.4825C201.813 47.0617 201.928 46.5418 201.922 45.9226Z" fill="#8C89A2"/>
<path d="M239.789 32.9188V52H236.415V32.9188H239.789Z" fill="#8C89A2"/>
<path d="M103.972 42.1788L100.637 42.2336C100.58 41.9388 100.457 41.6734 100.269 41.4375C100.081 41.1957 99.8332 41.004 99.5253 40.8625C99.2232 40.7151 98.8612 40.6413 98.4394 40.6413C97.875 40.6413 97.399 40.7652 97.0114 41.0128C96.6238 41.2547 96.43 41.579 96.43 41.986C96.43 42.3103 96.5554 42.5846 96.8062 42.8087C97.057 43.0327 97.4874 43.2127 98.0973 43.3483L100.474 43.8437C101.751 44.115 102.703 44.5514 103.33 45.1529C103.957 45.7545 104.271 46.5447 104.271 47.5238C104.271 48.4143 104.017 49.1957 103.51 49.868C103.008 50.5403 102.319 51.0652 101.441 51.4427C100.568 51.8142 99.5624 52 98.4223 52C96.6836 52 95.2984 51.6255 94.2666 50.8765C93.2405 50.1216 92.4624 48.9133 92.4624 47.6034H96.0452C96.1535 48.1518 96.4157 48.5705 96.8319 48.8596C97.248 49.1426 97.781 49.2842 98.4308 49.2842C99.0693 49.2842 99.5823 49.1574 99.97 48.9038C100.363 48.6443 100.563 48.3111 100.568 47.9042C100.563 47.5621 100.423 47.282 100.15 47.0638C99.8759 46.8397 99.454 46.6686 98.884 46.5506L96.6095 46.0818C95.3269 45.8164 94.3721 45.3564 93.745 44.7018C93.1237 44.0471 92.813 43.2127 92.813 42.1983C92.813 41.3254 93.041 40.5735 93.4971 39.9424C93.9588 39.3114 94.6058 38.8248 95.4381 38.4828C96.276 38.1407 97.2565 37.9697 98.3795 37.9697C100.038 37.9697 101.344 38.3324 102.296 39.0578C103.253 39.7832 103.99 40.7758 103.972 42.1788Z" fill="#8C89A2"/>
<path d="M146.708 42.1788L143.373 42.2336C143.316 41.9388 143.193 41.6734 143.005 41.4375C142.817 41.1957 142.569 41.004 142.261 40.8625C141.959 40.7151 141.597 40.6413 141.175 40.6413C140.611 40.6413 140.135 40.7652 139.747 41.0128C139.359 41.2547 139.166 41.579 139.166 41.986C139.166 42.3103 139.291 42.5846 139.542 42.8087C139.793 43.0327 140.223 43.2127 140.833 43.3483L143.21 43.8437C144.487 44.115 145.439 44.5514 146.066 45.1529C146.693 45.7545 147.007 46.5447 147.007 47.5238C147.007 48.4143 146.753 49.1957 146.246 49.868C145.744 50.5403 145.054 51.0652 144.177 51.4427C143.305 51.8142 142.298 52 141.158 52C139.42 52 138.034 51.6255 137.003 50.8765C135.976 50.1216 135.198 48.9133 135.198 47.6034H138.781C138.889 48.1518 139.151 48.5705 139.567 48.8596C139.984 49.1426 140.517 49.2842 141.167 49.2842C141.805 49.2842 142.318 49.1574 142.706 48.9038C143.099 48.6443 143.299 48.3111 143.305 47.9042C143.299 47.5621 143.159 47.282 142.886 47.0638C142.612 46.8397 142.19 46.6686 141.62 46.5506L139.345 46.0818C138.063 45.8164 137.108 45.3564 136.481 44.7018C135.86 44.0471 135.549 43.2127 135.549 42.1983C135.549 41.3254 135.777 40.5735 136.233 39.9424C136.695 39.3114 137.342 38.8248 138.174 38.4828C139.012 38.1407 139.993 37.9697 141.115 37.9697C142.774 37.9697 144.079 38.3324 145.031 39.0578C145.989 39.7832 146.726 40.7758 146.708 42.1788Z" fill="#8C89A2"/>
<path d="M159.079 42.1788L155.744 42.2336C155.687 41.9388 155.565 41.6734 155.376 41.4375C155.188 41.1957 154.94 41.004 154.632 40.8625C154.33 40.7151 153.968 40.6413 153.546 40.6413C152.982 40.6413 152.506 40.7652 152.119 41.0128C151.731 41.2547 151.537 41.579 151.537 41.986C151.537 42.3103 151.663 42.5846 151.913 42.8087C152.164 43.0327 152.594 43.2127 153.205 43.3483L155.581 43.8437C156.858 44.115 157.81 44.5514 158.437 45.1529C159.064 45.7545 159.378 46.5447 159.378 47.5238C159.378 48.4143 159.125 49.1957 158.617 49.868C158.116 50.5403 157.426 51.0652 156.548 51.4427C155.676 51.8142 154.669 52 153.53 52C151.791 52 150.405 51.6255 149.374 50.8765C148.348 50.1216 147.57 48.9133 147.57 47.6034H151.152C151.261 48.1518 151.523 48.5705 151.939 48.8596C152.355 49.1426 152.888 49.2842 153.538 49.2842C154.176 49.2842 154.69 49.1574 155.077 48.9038C155.471 48.6443 155.67 48.3111 155.676 47.9042C155.67 47.5621 155.53 47.282 155.257 47.0638C154.983 46.8397 154.561 46.6686 153.991 46.5506L151.717 46.0818C150.434 45.8164 149.479 45.3564 148.852 44.7018C148.231 44.0471 147.92 43.2127 147.92 42.1983C147.92 41.3254 148.148 40.5735 148.604 39.9424C149.066 39.3114 149.713 38.8248 150.545 38.4828C151.383 38.1407 152.364 37.9697 153.487 37.9697C155.146 37.9697 156.451 38.3324 157.403 39.0578C158.36 39.7832 159.097 40.7758 159.079 42.1788Z" fill="#8C89A2"/>
<path d="M88.3352 45.9226V37.9697H91.9004V52H88.4775V49.3039H88.3436C88.0535 50.1155 87.5709 50.7677 86.8957 51.2606C86.2262 51.7535 85.4089 52 84.4437 52C83.5844 52 82.8285 51.7896 82.1757 51.3688C81.5229 50.948 81.0124 50.3499 80.6442 49.5744C80.2815 48.799 80.0974 47.8703 80.0918 46.7883V37.9697H83.657V46.103C83.6625 46.9205 83.8662 47.5667 84.2679 48.0416C84.6696 48.5164 85.208 48.7539 85.8831 48.7539C86.3127 48.7539 86.7144 48.6487 87.0882 48.4383C87.462 48.2219 87.7633 47.9033 87.9921 47.4825C88.2264 47.0617 88.3408 46.5418 88.3352 45.9226Z" fill="#8C89A2"/>
<path d="M104.968 52V37.9697H108.54V52H104.968ZM106.762 36.5265C106.231 36.5265 105.776 36.3507 105.395 35.9991C105.021 35.642 104.833 35.2151 104.833 34.7185C104.833 34.2274 105.021 33.8061 105.395 33.4545C105.776 33.0974 106.231 32.9188 106.762 32.9188C107.294 32.9188 107.747 33.0974 108.121 33.4545C108.501 33.8061 108.691 34.2274 108.691 34.7185C108.691 35.2151 108.501 35.642 108.121 35.9991C107.747 36.3507 107.294 36.5265 106.762 36.5265Z" fill="#8C89A2"/>
<path d="M231.488 52V37.9697H235.061V52H231.488ZM233.283 36.5265C232.752 36.5265 232.296 36.3507 231.916 35.9991C231.541 35.642 231.354 35.2151 231.354 34.7185C231.354 34.2274 231.541 33.8061 231.916 33.4545C232.296 33.0974 232.752 32.9188 233.283 32.9188C233.814 32.9188 234.267 33.0974 234.642 33.4545C235.022 33.8061 235.212 34.2274 235.212 34.7185C235.212 35.2151 235.022 35.642 234.642 35.9991C234.267 36.3507 233.814 36.5265 233.283 36.5265Z" fill="#8C89A2"/>
<path d="M64.9092 51.9999V33.48H72.4969C73.891 33.48 75.0538 33.682 75.9854 34.0859C76.9168 34.4898 77.617 35.0504 78.0858 35.7679C78.5547 36.4792 78.7891 37.2991 78.7891 38.2275C78.7891 38.9509 78.6411 39.587 78.3449 40.1356C78.0488 40.6782 77.6417 41.1243 77.1235 41.4739C76.6115 41.8176 76.0254 42.0617 75.3653 42.2064V42.3873C76.0871 42.4174 76.7626 42.6164 77.3918 42.9841C78.0272 43.3518 78.5423 43.8673 78.9371 44.5304C79.3319 45.1876 79.5293 45.9713 79.5293 46.8816C79.5293 47.8643 79.2795 48.7414 78.7798 49.5131C78.2863 50.2788 77.5553 50.8846 76.5868 51.3308C75.6183 51.7769 74.4246 51.9999 73.0058 51.9999H64.9092ZM68.9158 48.7987H72.1823C73.2988 48.7987 74.1131 48.5907 74.6251 48.1748C75.1371 47.7527 75.3931 47.1921 75.3931 46.4928C75.3931 45.9803 75.2667 45.5282 75.0137 45.1363C74.7608 44.7445 74.4 44.437 73.9311 44.214C73.4684 43.9909 72.9164 43.8794 72.2748 43.8794H68.9158V48.7987ZM68.9158 41.2298H71.8861C72.4352 41.2298 72.9225 41.1364 73.3482 40.9495C73.78 40.7565 74.1193 40.4852 74.366 40.1356C74.6189 39.7859 74.7454 39.3669 74.7454 38.8786C74.7454 38.2094 74.5017 37.6699 74.0144 37.26C73.5332 36.85 72.8485 36.645 71.9601 36.645H68.9158V41.2298Z" fill="#8C89A2"/>
<path d="M179.621 40.0377H176.147C176.083 39.5389 175.954 39.0959 175.758 38.7085C175.563 38.3154 175.311 37.9809 175.004 37.7051C174.698 37.4293 174.344 37.218 173.941 37.0713C173.545 36.9246 173.114 36.8512 172.649 36.8512C171.807 36.8512 171.075 37.0831 170.451 37.5466C169.827 38.0044 169.343 38.6733 168.999 39.5535C168.656 40.4279 168.484 41.49 168.484 42.74C168.484 44.0251 168.656 45.1048 168.999 45.9792C169.348 46.8535 169.835 47.5137 170.459 47.9597C171.083 48.4057 171.805 48.6287 172.625 48.6287C173.084 48.6287 173.511 48.5612 173.902 48.4262C174.299 48.2912 174.65 48.0947 174.957 47.8365C175.263 47.5724 175.518 47.2526 175.718 46.877C175.925 46.5015 176.068 46.0731 176.147 45.5919L179.621 45.6095C179.531 46.4369 179.306 47.235 178.947 48.0037C178.593 48.7666 178.114 49.4502 177.511 50.0546C176.914 50.6532 176.2 51.1285 175.369 51.4806C174.544 51.8268 173.611 51.9999 172.569 51.9999C171.12 51.9999 169.824 51.6361 168.682 50.9084C167.545 50.1808 166.646 49.1275 165.985 47.7484C165.329 46.3694 165.001 44.6999 165.001 42.74C165.001 40.7741 165.335 39.1017 166.001 37.7227C166.667 36.3437 167.572 35.2933 168.714 34.5715C169.856 33.8438 171.141 33.48 172.569 33.48C173.511 33.48 174.383 33.6267 175.187 33.9201C175.996 34.2135 176.713 34.6419 177.337 35.2052C177.961 35.7627 178.469 36.4463 178.86 37.2561C179.256 38.066 179.51 38.9931 179.621 40.0377Z" fill="#8C89A2"/>
<path d="M186.369 52C185.098 52 183.999 51.7081 183.072 51.1242C182.15 50.5345 181.438 49.7147 180.937 48.6649C180.434 47.6093 180.184 46.3855 180.184 44.9937C180.184 43.5901 180.434 42.3634 180.937 41.3136C181.438 40.258 182.15 39.4382 183.072 38.8544C183.999 38.2646 185.098 37.9697 186.369 37.9697C187.64 37.9697 188.736 38.2646 189.658 38.8544C190.585 39.4382 191.3 40.258 191.802 41.3136C192.304 42.3634 192.554 43.5901 192.554 44.9937C192.554 46.3855 192.304 47.6093 191.802 48.6649C191.3 49.7147 190.585 50.5345 189.658 51.1242C188.736 51.7081 187.64 52 186.369 52ZM186.385 49.0807C186.963 49.0807 187.446 48.9038 187.833 48.55C188.221 48.1902 188.513 47.7007 188.709 47.0814C188.911 46.4622 189.012 45.7574 189.012 44.9672C189.012 44.1769 188.911 43.4721 188.709 42.8529C188.513 42.2336 188.221 41.7441 187.833 41.3844C187.446 41.0247 186.963 40.8448 186.385 40.8448C185.802 40.8448 185.311 41.0247 184.913 41.3844C184.52 41.7441 184.223 42.2336 184.021 42.8529C183.825 43.4721 183.726 44.1769 183.726 44.9672C183.726 45.7574 183.825 46.4622 184.021 47.0814C184.223 47.7007 184.52 48.1902 184.913 48.55C185.311 48.9038 185.802 49.0807 186.385 49.0807Z" fill="#8C89A2"/>
<path d="M225.174 52C223.886 52 222.778 51.7051 221.85 51.1154C220.927 50.5197 220.217 49.694 219.721 48.6384C219.229 47.5827 218.983 46.3679 218.983 44.9937C218.983 43.6019 219.232 42.3811 219.728 41.3313C220.231 40.2757 220.943 39.4529 221.866 38.8632C222.789 38.2676 223.886 37.9697 225.158 37.9697C226.255 37.9697 227.216 38.185 228.041 38.6155C228.865 39.046 229.517 39.6506 229.997 40.429C230.478 41.2075 230.743 42.1216 230.792 43.1714H227.5C227.407 42.4931 227.162 41.9476 226.763 41.5348C226.37 41.116 225.854 40.9067 225.216 40.9067C224.675 40.9067 224.203 41.0659 223.798 41.3844C223.4 41.697 223.089 42.1541 222.865 42.7556C222.641 43.3571 222.529 44.0855 222.529 44.9406C222.529 45.8075 222.638 46.5447 222.857 47.1522C223.08 47.7597 223.395 48.2226 223.798 48.5411C224.203 48.8596 224.675 49.0188 225.216 49.0188C225.614 49.0188 225.971 48.9303 226.288 48.7534C226.61 48.5764 226.875 48.3199 227.082 47.9837C227.296 47.6417 227.434 47.2318 227.5 46.7541H230.792C230.737 47.7921 230.475 48.7062 230.006 49.4965C229.542 50.2808 228.9 50.8942 228.082 51.3365C227.262 51.7788 226.293 52 225.174 52Z" fill="#8C89A2"/>
</svg>
