<svg width="210" height="60" viewBox="0 0 210 60" fill="none" xmlns="http://www.w3.org/2000/svg">
<path d="M16.1702 41.3395L30.5531 12.0203L41.3404 30.2756H34.9787L30.5531 22.8076L20.5957 45.2118L16.1702 41.3395Z" fill="#8C89A2"/>
<path fill-rule="evenodd" clip-rule="evenodd" d="M55.9072 32.2126C54.7844 45.5364 43.6141 56 30 56C15.6406 56 4 44.3594 4 30C4 15.6406 15.6406 4 30 4C42.2638 4 52.5445 12.4909 55.284 23.9147H48.9682C46.3966 15.8923 38.8765 10.0851 30.0002 10.0851C19.0015 10.0851 10.0853 19.0013 10.0853 30C10.0853 40.9987 19.0015 49.9149 30.0002 49.9149C40.251 49.9149 48.6929 42.17 49.7935 32.2126H55.9072Z" fill="#8C89A2"/>
<path d="M30.8295 32.2123H53.7869V37.7442H28.8933L30.8295 32.2123Z" fill="#8C89A2"/>
<path d="M40.5108 46.042L37.7449 38.8506H42.447L43.83 42.7229L40.5108 46.042Z" fill="#8C89A2"/>
<path d="M87.1252 12.8634C87.0034 12.4202 86.8323 12.0287 86.612 11.6888C86.3916 11.3427 86.122 11.0514 85.8031 10.8146C85.4899 10.5718 85.1304 10.3867 84.7245 10.2592C84.3244 10.1317 83.8808 10.068 83.3937 10.068C82.4833 10.068 81.683 10.3047 80.993 10.7782C80.3088 11.2517 79.7753 11.9407 79.3926 12.8452C79.0098 13.7436 78.8185 14.8423 78.8185 16.1414C78.8185 17.4405 79.0069 18.5452 79.3838 19.4558C79.7608 20.3664 80.2943 21.0614 80.9843 21.541C81.6744 22.0145 82.489 22.2512 83.4285 22.2512C84.2809 22.2512 85.0086 22.0934 85.6117 21.7777C86.2206 21.456 86.6845 21.0038 87.0034 20.421C87.3281 19.8382 87.4905 19.1492 87.4905 18.354L88.2559 18.4724H83.6633V15.504H91.1176V17.8532C91.1176 19.4922 90.7871 20.9006 90.126 22.0782C89.465 23.2498 88.5545 24.1543 87.3948 24.7917C86.2351 25.423 84.9071 25.7386 83.4111 25.7386C81.7411 25.7386 80.274 25.3532 79.0098 24.5823C77.7457 23.8052 76.7599 22.7035 76.0525 21.2769C75.3508 19.8443 75 18.1446 75 16.1778C75 14.6663 75.2088 13.3187 75.6263 12.1349C76.0496 10.9451 76.641 9.93746 77.4007 9.11189C78.1603 8.28631 79.0446 7.65803 80.0536 7.22703C81.0626 6.79604 82.1557 6.58054 83.3328 6.58054C84.3418 6.58054 85.2812 6.73533 86.151 7.04492C87.0208 7.34844 87.7921 7.77943 88.4647 8.33791C89.1431 8.89639 89.6969 9.56109 90.126 10.332C90.5551 11.0969 90.8306 11.9407 90.9523 12.8634H87.1252Z" fill="#8C89A2"/>
<path d="M99.1191 25.7387C97.717 25.7387 96.5102 25.4458 95.4986 24.8602C94.4928 24.2684 93.7179 23.4326 93.1736 22.3527C92.6293 21.2668 92.3572 19.9826 92.3572 18.5001C92.3572 17.0542 92.6293 15.7853 93.1736 14.6932C93.7179 13.6012 94.484 12.7502 95.4719 12.1401C96.4658 11.53 97.6312 11.2249 98.9682 11.2249C99.8675 11.2249 100.705 11.3744 101.48 11.6733C102.261 11.9662 102.941 12.4085 103.521 13.0003C104.106 13.592 104.562 14.3363 104.887 15.2332C105.213 16.1238 105.375 17.1671 105.375 18.3629V19.4335H93.8657V17.0176H101.817C101.817 16.4563 101.698 15.9591 101.462 15.526C101.225 15.0929 100.897 14.7542 100.477 14.5102C100.063 14.2601 99.5806 14.135 99.0304 14.135C98.4565 14.135 97.9478 14.2723 97.5041 14.5468C97.0663 14.8152 96.7231 15.1783 96.4747 15.6358C96.2262 16.0873 96.099 16.5906 96.0931 17.1457V19.4427C96.0931 20.1382 96.2173 20.7391 96.4658 21.2455C96.7202 21.7518 97.0781 22.1423 97.5395 22.4168C98.001 22.6913 98.5482 22.8286 99.1813 22.8286C99.6013 22.8286 99.9858 22.7676 100.335 22.6456C100.684 22.5236 100.983 22.3405 101.231 22.0965C101.48 21.8525 101.669 21.5535 101.799 21.1997L105.295 21.4376C105.118 22.3039 104.754 23.0604 104.204 23.7071C103.66 24.3477 102.956 24.8479 102.092 25.2079C101.234 25.5617 100.243 25.7387 99.1191 25.7387Z" fill="#8C89A2"/>
<path d="M127.635 25.7387C126.233 25.7387 125.026 25.4458 124.014 24.8602C123.009 24.2684 122.234 23.4326 121.689 22.3527C121.145 21.2668 120.873 19.9826 120.873 18.5001C120.873 17.0542 121.145 15.7853 121.689 14.6932C122.234 13.6012 123 12.7502 123.988 12.1401C124.982 11.53 126.147 11.2249 127.484 11.2249C128.383 11.2249 129.22 11.3744 129.995 11.6733C130.776 11.9662 131.457 12.4085 132.036 13.0003C132.622 13.592 133.078 14.3363 133.403 15.2332C133.728 16.1238 133.891 17.1671 133.891 18.3629V19.4335H122.382V17.0176H130.333C130.333 16.4563 130.214 15.9591 129.978 15.526C129.741 15.0929 129.413 14.7542 128.993 14.5102C128.579 14.2601 128.096 14.135 127.546 14.135C126.972 14.135 126.464 14.2723 126.02 14.5468C125.582 14.8152 125.239 15.1783 124.991 15.6358C124.742 16.0873 124.615 16.5906 124.609 17.1457V19.4427C124.609 20.1382 124.733 20.7391 124.982 21.2455C125.236 21.7518 125.594 22.1423 126.055 22.4168C126.517 22.6913 127.064 22.8286 127.697 22.8286C128.117 22.8286 128.502 22.7676 128.851 22.6456C129.2 22.5236 129.499 22.3405 129.747 22.0965C129.995 21.8525 130.185 21.5535 130.315 21.1997L133.811 21.4376C133.634 22.3039 133.27 23.0604 132.72 23.7071C132.175 24.3477 131.471 24.8479 130.608 25.2079C129.75 25.5617 128.759 25.7387 127.635 25.7387Z" fill="#8C89A2"/>
<path d="M110.532 17.4557V25.7387H106.615V11.4115H110.348V13.9392H110.513C110.826 13.106 111.35 12.4469 112.085 11.9618C112.821 11.4706 113.713 11.2249 114.761 11.2249C115.741 11.2249 116.596 11.4426 117.326 11.8779C118.055 12.3132 118.622 12.935 119.027 13.7434C119.431 14.5456 119.633 15.5032 119.633 16.6163V25.7387H115.717V17.3252C115.723 16.4484 115.502 15.7644 115.055 15.2731C114.608 14.7756 113.992 14.5269 113.207 14.5269C112.68 14.5269 112.214 14.6419 111.81 14.872C111.411 15.1021 111.099 15.4379 110.872 15.8794C110.651 16.3147 110.538 16.8401 110.532 17.4557Z" fill="#8C89A2"/>
<path d="M135.131 25.7387V11.2249H138.977V13.9265H139.126C139.387 13.0384 139.824 12.3676 140.439 11.9143C141.053 11.4547 141.761 11.2249 142.562 11.2249C142.761 11.2249 142.975 11.2374 143.205 11.2622C143.434 11.287 143.636 11.3212 143.81 11.3647V14.886C143.624 14.8301 143.366 14.7804 143.037 14.7369C142.707 14.6934 142.407 14.6717 142.133 14.6717C141.55 14.6717 141.029 14.799 140.569 15.0537C140.116 15.3021 139.756 15.6499 139.489 16.097C139.228 16.5442 139.098 17.0596 139.098 17.6434V25.7387H135.131Z" fill="#8C89A2"/>
<path d="M149.258 25.7387C148.33 25.7387 147.504 25.583 146.778 25.2717C146.052 24.9542 145.477 24.4872 145.055 23.8706C144.638 23.248 144.43 22.4727 144.43 21.5448C144.43 20.7634 144.578 20.1072 144.875 19.5761C145.171 19.0449 145.575 18.6177 146.087 18.2941C146.598 17.9705 147.178 17.7263 147.829 17.5615C148.485 17.3967 149.173 17.2807 149.892 17.2136C150.738 17.1281 151.42 17.0487 151.937 16.9755C152.455 16.8962 152.831 16.7802 153.064 16.6275C153.297 16.4749 153.415 16.249 153.415 15.9499V15.895C153.415 15.315 153.225 14.8663 152.846 14.5489C152.474 14.2315 151.944 14.0728 151.256 14.0728C150.53 14.0728 149.952 14.2284 149.523 14.5398C149.094 14.845 148.81 15.2296 148.671 15.6935L144.941 15.4005C145.13 14.5459 145.503 13.8072 146.058 13.1845C146.614 12.5557 147.33 12.0735 148.207 11.7377C149.091 11.3959 150.114 11.2249 151.275 11.2249C152.082 11.2249 152.856 11.3165 153.594 11.4996C154.339 11.6828 154.998 11.9667 155.573 12.3513C156.154 12.7358 156.611 13.2303 156.946 13.8347C157.28 14.4329 157.448 15.1502 157.448 15.9865V25.4731H153.623V23.5227H153.509C153.276 23.9622 152.963 24.3499 152.572 24.6856C152.18 25.0152 151.711 25.2747 151.161 25.464C150.612 25.6471 149.978 25.7387 149.258 25.7387ZM150.413 23.0465C151.006 23.0465 151.531 22.9336 151.985 22.7077C152.44 22.4757 152.796 22.1644 153.054 21.7737C153.314 21.383 153.443 20.9404 153.443 20.446V18.9534C153.317 19.0327 153.143 19.106 152.922 19.1732C152.707 19.2342 152.464 19.2922 152.193 19.3471C151.922 19.396 151.65 19.4417 151.379 19.4845C151.107 19.5211 150.861 19.5547 150.641 19.5852C150.167 19.6524 149.753 19.7592 149.4 19.9057C149.047 20.0522 148.772 20.2506 148.576 20.5009C148.381 20.7451 148.283 21.0503 148.283 21.4166C148.283 21.9477 148.482 22.3537 148.879 22.6345C149.284 22.9092 149.795 23.0465 150.413 23.0465Z" fill="#8C89A2"/>
<path d="M162.407 6V25.7387H158.688V6H162.407Z" fill="#8C89A2"/>
<path d="M128.332 49.904C126.93 49.904 125.723 49.6112 124.711 49.0256C123.706 48.4337 122.931 47.5979 122.386 46.5181C121.842 45.4322 121.57 44.148 121.57 42.6655C121.57 41.2196 121.842 39.9506 122.386 38.8586C122.931 37.7666 123.697 36.9155 124.685 36.3054C125.679 35.6953 126.844 35.3903 128.181 35.3903C129.08 35.3903 129.918 35.5398 130.692 35.8387C131.473 36.1316 132.154 36.5739 132.733 37.1656C133.319 37.7574 133.775 38.5017 134.1 39.3985C134.425 40.2892 134.588 41.3325 134.588 42.5282V43.5989H123.079V41.183H131.03C131.03 40.6217 130.911 40.1245 130.675 39.6914C130.438 39.2582 130.11 38.9196 129.69 38.6756C129.276 38.4254 128.793 38.3004 128.243 38.3004C127.669 38.3004 127.161 38.4377 126.717 38.7122C126.279 38.9806 125.936 39.3436 125.688 39.8012C125.439 40.2526 125.312 40.7559 125.306 41.3111V43.608C125.306 44.3035 125.43 44.9045 125.679 45.4108C125.933 45.9172 126.291 46.3077 126.752 46.5822C127.214 46.8567 127.761 46.994 128.394 46.994C128.814 46.994 129.199 46.933 129.548 46.8109C129.897 46.689 130.196 46.5059 130.444 46.2619C130.692 46.0178 130.882 45.7189 131.012 45.3651L134.508 45.603C134.331 46.4693 133.967 47.2258 133.417 47.8725C132.872 48.513 132.169 49.0133 131.305 49.3732C130.447 49.7271 129.456 49.904 128.332 49.904Z" fill="#8C89A2"/>
<path d="M176.123 30.1654V49.904H172.403V30.1654H176.123Z" fill="#8C89A2"/>
<path d="M79.9294 49.904H75.6973L82.1457 30.7459H87.2352L93.6746 49.904H89.4425L84.7635 35.1238H84.6175L79.9294 49.904ZM79.6649 42.3736H89.6614V45.5355H79.6649V42.3736Z" fill="#8C89A2"/>
<path d="M106.363 39.7444L102.686 39.8012C102.623 39.4961 102.488 39.2216 102.281 38.9776C102.074 38.7274 101.8 38.5292 101.461 38.3828C101.128 38.2302 100.729 38.154 100.264 38.154C99.6415 38.154 99.1168 38.2821 98.6895 38.5383C98.2621 38.7884 98.0485 39.124 98.0485 39.545C98.0485 39.8805 98.1867 40.1642 98.4632 40.396C98.7398 40.6278 99.2142 40.8139 99.8867 40.9542L102.507 41.4667C103.915 41.7473 104.964 42.1988 105.656 42.8211C106.347 43.4433 106.693 44.2608 106.693 45.2736C106.693 46.1948 106.413 47.0031 105.854 47.6986C105.301 48.3941 104.54 48.9371 103.572 49.3275C102.611 49.7119 101.502 49.904 100.245 49.904C98.3281 49.904 96.801 49.5166 95.6635 48.7418C94.5324 47.9609 93.6746 46.711 93.6746 45.3559H97.6243C97.7437 45.9233 98.0328 46.3564 98.4916 46.6554C98.9503 46.9482 99.5379 47.0946 100.254 47.0946C100.958 47.0946 101.524 46.9634 101.951 46.7012C102.385 46.4327 102.605 46.088 102.611 45.6671C102.605 45.3132 102.451 45.0234 102.149 44.7977C101.847 44.5659 101.382 44.3889 100.754 44.2669L98.2464 43.7819C96.8324 43.5074 95.7798 43.0315 95.0886 42.3544C94.4036 41.6771 94.0611 40.8139 94.0611 39.7646C94.0611 38.8617 94.3124 38.0838 94.8152 37.431C95.3242 36.7782 96.0375 36.2749 96.955 35.9211C97.8788 35.5672 98.9597 35.3903 100.198 35.3903C102.026 35.3903 103.466 35.7655 104.515 36.5159C105.571 37.2663 106.383 38.2931 106.363 39.7444Z" fill="#8C89A2"/>
<path d="M120.001 39.7444L116.324 39.8012C116.261 39.4961 116.126 39.2216 115.919 38.9776C115.712 38.7274 115.438 38.5292 115.099 38.3828C114.766 38.2302 114.367 38.154 113.902 38.154C113.279 38.154 112.755 38.2821 112.327 38.5383C111.9 38.7884 111.686 39.124 111.686 39.545C111.686 39.8805 111.825 40.1642 112.101 40.396C112.378 40.6278 112.852 40.8139 113.525 40.9542L116.145 41.4667C117.553 41.7473 118.602 42.1988 119.294 42.8211C119.985 43.4433 120.331 44.2608 120.331 45.2736C120.331 46.1948 120.051 47.0031 119.492 47.6986C118.939 48.3941 118.178 48.9371 117.21 49.3275C116.249 49.7119 115.14 49.904 113.883 49.904C111.966 49.904 110.439 49.5166 109.301 48.7418C108.17 47.9609 107.312 46.711 107.312 45.3559H111.262C111.382 45.9233 111.671 46.3564 112.129 46.6554C112.588 46.9482 113.176 47.0946 113.892 47.0946C114.596 47.0946 115.162 46.9634 115.589 46.7012C116.023 46.4327 116.243 46.088 116.249 45.6671C116.243 45.3132 116.089 45.0234 115.787 44.7977C115.485 44.5659 115.02 44.3889 114.392 44.2669L111.884 43.7819C110.47 43.5074 109.418 43.0315 108.727 42.3544C108.042 41.6771 107.699 40.8139 107.699 39.7646C107.699 38.8617 107.95 38.0838 108.453 37.431C108.962 36.7782 109.675 36.2749 110.593 35.9211C111.517 35.5672 112.598 35.3903 113.836 35.3903C115.664 35.3903 117.104 35.7655 118.153 36.5159C119.209 37.2663 120.021 38.2931 120.001 39.7444Z" fill="#8C89A2"/>
<path d="M135.828 49.904V35.5769H139.549V38.1046H139.714C140.008 37.2651 140.496 36.6029 141.18 36.1179C141.865 35.6328 142.684 35.3903 143.637 35.3903C144.602 35.3903 145.424 35.6359 146.102 36.1272C146.781 36.6123 147.233 37.2714 147.459 38.1046H147.606C147.893 37.2838 148.412 36.6278 149.164 36.1365C149.921 35.639 150.816 35.3903 151.849 35.3903C153.163 35.3903 154.229 35.8163 155.048 36.6682C155.873 37.5139 156.285 38.714 156.285 40.2687V49.904H152.39V41.0522C152.39 40.2562 152.182 39.6593 151.767 39.2612C151.351 38.8633 150.832 38.6643 150.209 38.6643C149.5 38.6643 148.947 38.8944 148.55 39.3545C148.153 39.8085 147.954 40.4086 147.954 41.1548V49.904H144.168V40.9682C144.168 40.2655 143.97 39.7059 143.573 39.2892C143.181 38.8726 142.666 38.6643 142.024 38.6643C141.59 38.6643 141.199 38.7763 140.851 39.0001C140.508 39.2178 140.237 39.5256 140.035 39.9235C139.833 40.3153 139.732 40.7754 139.732 41.304V49.904H135.828Z" fill="#8C89A2"/>
<path d="M157.525 49.904L157.555 30.1654H161.425L161.423 37.9082H161.541C161.711 37.5277 161.956 37.141 162.276 36.7482C162.604 36.3493 163.028 36.0178 163.549 35.7539C164.076 35.4839 164.73 35.3489 165.511 35.3489C166.529 35.3489 167.468 35.6189 168.328 36.159C169.188 36.693 169.876 37.5001 170.39 38.5803C170.906 39.6543 171.163 41.0016 171.163 42.6219C171.163 44.1992 170.911 45.5311 170.408 46.6174C169.912 47.6976 169.234 48.5169 168.373 49.0755C167.52 49.6279 166.563 49.904 165.503 49.904C164.751 49.904 164.112 49.7782 163.585 49.5266C163.064 49.275 162.637 48.9588 162.304 48.5784C161.971 48.1916 161.717 47.8019 161.541 47.4091H161.368L161.341 49.904H157.525ZM161.341 42.6035C161.341 43.4443 161.456 44.1777 161.686 44.8037C161.916 45.4297 162.249 45.9177 162.686 46.2675C163.122 46.6112 163.652 46.7831 164.276 46.7831C164.906 46.7831 165.439 46.6082 165.875 46.2584C166.311 45.9024 166.641 45.4113 166.865 44.7853C167.096 44.1532 167.21 43.4259 167.21 42.6035C167.21 41.7872 167.098 41.0691 166.874 40.4492C166.65 39.8293 166.32 39.3444 165.884 38.9945C165.448 38.6447 164.912 38.4698 164.276 38.4698C163.646 38.4698 163.113 38.6386 162.676 38.9761C162.247 39.3137 161.916 39.7924 161.686 40.4124C161.456 41.0322 161.341 41.7626 161.341 42.6035Z" fill="#8C89A2"/>
<path d="M180.274 54.5484C179.779 54.5484 179.314 54.5103 178.88 54.4341C178.452 54.3637 178.097 54.2728 177.816 54.1614L178.697 51.3642C179.155 51.4991 179.568 51.5724 179.935 51.5841C180.308 51.5958 180.629 51.5137 180.899 51.3378C181.174 51.1619 181.397 50.8628 181.568 50.4406L181.798 49.8688L176.742 35.9709H180.853L183.77 45.893H183.917L186.862 35.9709H191L185.523 50.942C185.26 51.6691 184.902 52.3025 184.449 52.842C184.003 53.3873 183.437 53.8066 182.752 54.0998C182.067 54.3989 181.241 54.5484 180.274 54.5484Z" fill="#8C89A2"/>
</svg>
