<svg width="224" height="32" viewBox="0 0 224 32" fill="none" xmlns="http://www.w3.org/2000/svg">
<g clip-path="url(#clip0_2154_1030)">
<path d="M49.8846 26.176L45.8398 8.3072H49.6798L51.3694 16.8832L52.3166 21.8496H52.3934L53.5198 16.8832L55.491 8.3072H59.7406L61.7374 16.8832L62.8382 21.8496H62.915L63.8622 16.8832L65.5774 8.3072H69.2638L65.1166 26.176H60.6878L58.435 16.4992L57.5646 12.5824H57.4878L56.5918 16.4992L54.339 26.176H49.8846Z" fill="black" fill-opacity="0.65"/>
<path d="M72.9926 26.176V8.3072H85.1525V11.7632H76.8838V15.424H83.9749V18.8544H76.8838V22.72H85.1525V26.176H72.9926Z" fill="black" fill-opacity="0.65"/>
<path d="M89.5665 26.176V8.3072H101.726V11.7632H93.4577V15.424H100.549V18.8544H93.4577V22.72H101.726V26.176H89.5665Z" fill="black" fill-opacity="0.65"/>
<path d="M111.926 26.4832C110.356 26.4832 109.025 26.2186 107.932 25.6896C106.84 25.1434 105.91 24.4437 105.142 23.5904L107.702 21.0048C108.914 22.3701 110.407 23.0528 112.182 23.0528C113.138 23.0528 113.846 22.8565 114.307 22.464C114.768 22.0714 114.998 21.5509 114.998 20.9024C114.998 20.4074 114.862 19.9978 114.588 19.6736C114.315 19.3322 113.761 19.1018 112.924 18.9824L111.158 18.752C109.264 18.513 107.873 17.9413 106.985 17.0368C106.115 16.1322 105.68 14.929 105.68 13.4272C105.68 12.6251 105.833 11.8912 106.14 11.2256C106.448 10.56 106.883 9.98826 107.446 9.5104C108.026 9.03253 108.726 8.6656 109.545 8.4096C110.382 8.13653 111.329 8 112.387 8C113.735 8 114.921 8.21333 115.945 8.64C116.969 9.06666 117.848 9.6896 118.582 10.5088L115.996 13.12C115.57 12.6251 115.049 12.224 114.435 11.9168C113.838 11.5925 113.078 11.4304 112.156 11.4304C111.286 11.4304 110.638 11.584 110.211 11.8912C109.784 12.1984 109.571 12.6251 109.571 13.1712C109.571 13.7856 109.733 14.2293 110.057 14.5024C110.399 14.7754 110.945 14.9717 111.696 15.0912L113.462 15.3728C115.305 15.6629 116.671 16.2346 117.558 17.088C118.446 17.9242 118.889 19.1189 118.889 20.672C118.889 21.5253 118.736 22.3104 118.428 23.0272C118.121 23.744 117.669 24.3584 117.072 24.8704C116.491 25.3824 115.766 25.7834 114.896 26.0736C114.025 26.3466 113.035 26.4832 111.926 26.4832Z" fill="black" fill-opacity="0.65"/>
<path d="M129.989 11.7632V26.176H126.098V11.7632H121.259V8.3072H134.827V11.7632H129.989Z" fill="black" fill-opacity="0.65"/>
<path d="M147.846 26.176L146.566 21.9264H140.602L139.322 26.176H135.379L141.267 8.3072H146.08L151.891 26.176H147.846ZM143.622 11.84H143.494L141.523 18.624H145.619L143.622 11.84Z" fill="black" fill-opacity="0.65"/>
<path d="M159.279 26.176H155.387V8.3072H163.861C164.68 8.3072 165.423 8.44373 166.088 8.7168C166.754 8.98986 167.317 9.3824 167.778 9.8944C168.256 10.3893 168.623 10.9867 168.879 11.6864C169.135 12.3861 169.263 13.1627 169.263 14.016C169.263 15.2277 168.989 16.2858 168.443 17.1904C167.914 18.0949 167.104 18.752 166.011 19.1616L169.519 26.176H165.192L162.069 19.6224H159.279V26.176ZM163.375 16.3456C163.955 16.3456 164.407 16.2005 164.731 15.9104C165.073 15.6032 165.243 15.1594 165.243 14.5792V13.4528C165.243 12.8725 165.073 12.4373 164.731 12.1472C164.407 11.84 163.955 11.6864 163.375 11.6864H159.279V16.3456H163.375Z" fill="black" fill-opacity="0.65"/>
<path d="M180.486 11.7632V26.176H176.595V11.7632H171.756V8.3072H185.324V11.7632H180.486Z" fill="black" fill-opacity="0.65"/>
<path d="M189.01 26.176V8.3072H201.17V11.7632H192.901V15.424H199.993V18.8544H192.901V22.72H201.17V26.176H189.01Z" fill="black" fill-opacity="0.65"/>
<path d="M209.475 26.176H205.584V8.3072H214.058C214.877 8.3072 215.619 8.44373 216.285 8.7168C216.951 8.98986 217.514 9.3824 217.975 9.8944C218.452 10.3893 218.819 10.9867 219.075 11.6864C219.331 12.3861 219.459 13.1627 219.459 14.016C219.459 15.2277 219.186 16.2858 218.64 17.1904C218.111 18.0949 217.3 18.752 216.208 19.1616L219.715 26.176H215.389L212.266 19.6224H209.475V26.176ZM213.571 16.3456C214.152 16.3456 214.604 16.2005 214.928 15.9104C215.27 15.6032 215.44 15.1594 215.44 14.5792V13.4528C215.44 12.8725 215.27 12.4373 214.928 12.1472C214.604 11.84 214.152 11.6864 213.571 11.6864H209.475V16.3456H213.571Z" fill="black" fill-opacity="0.65"/>
<rect width="32.9745" height="10.3045" rx="5.15227" transform="matrix(-0.668845 0.743402 0.743402 0.668845 35.6055 0.594482)" fill="url(#paint0_linear_2154_1030)"/>
<rect width="32.9745" height="10.3045" rx="5.15227" transform="matrix(-0.668845 0.743402 0.743402 0.668845 19.6914 0.413208)" fill="url(#paint1_linear_2154_1030)"/>
<path d="M16.9967 21.2776L32.1594 4.42469C34.0626 2.30932 37.3203 2.13734 39.4357 4.04055C40.8215 5.28742 41.3733 7.11565 41.0538 8.82315L15.9268 26.3184C15.3778 24.6261 15.7212 22.6953 16.9967 21.2776Z" fill="url(#paint2_linear_2154_1030)"/>
<path d="M1.08264 21.0963L16.2453 4.24341C18.1485 2.12805 21.4062 1.95607 23.5216 3.85928C24.9075 5.10615 25.4592 6.93437 25.1398 8.64187L0.0127014 26.1371C-0.536308 24.4449 -0.192888 22.514 1.08264 21.0963Z" fill="url(#paint3_linear_2154_1030)"/>
<path fill-rule="evenodd" clip-rule="evenodd" d="M-1.27334 21.2495L9.34792 9.4443L9.40179 7.41302C9.47726 4.56733 7.23067 2.1997 4.38494 2.12588C1.54155 2.05212 -0.82371 4.29646 -0.899122 7.13981L-1.27334 21.2495Z" fill="url(#paint4_linear_2154_1030)"/>
</g>
<defs>
<linearGradient id="paint0_linear_2154_1030" x1="-13.8081" y1="21.1243" x2="32.2532" y2="3.1944" gradientUnits="userSpaceOnUse">
<stop stop-color="#0F33ED"/>
<stop offset="1" stop-color="#84AEFF"/>
</linearGradient>
<linearGradient id="paint1_linear_2154_1030" x1="-13.8081" y1="21.1243" x2="32.2532" y2="3.1944" gradientUnits="userSpaceOnUse">
<stop stop-color="#0F33ED"/>
<stop offset="1" stop-color="#84AEFF"/>
</linearGradient>
<linearGradient id="paint2_linear_2154_1030" x1="4.06187" y1="31.9567" x2="42.9983" y2="10.7112" gradientUnits="userSpaceOnUse">
<stop stop-color="#0C15F4"/>
<stop offset="1" stop-color="#0CA5F4" stop-opacity="0"/>
</linearGradient>
<linearGradient id="paint3_linear_2154_1030" x1="-11.8522" y1="31.7755" x2="27.0843" y2="10.53" gradientUnits="userSpaceOnUse">
<stop stop-color="#0C15F4"/>
<stop offset="1" stop-color="#0CA5F4" stop-opacity="0"/>
</linearGradient>
<linearGradient id="paint4_linear_2154_1030" x1="13.4804" y1="-17.1447" x2="-0.659921" y2="20.0011" gradientUnits="userSpaceOnUse">
<stop stop-color="#26FBEE"/>
<stop offset="1" stop-color="#A4DEFF"/>
</linearGradient>
<clipPath id="clip0_2154_1030">
<rect width="224" height="32" fill="white"/>
</clipPath>
</defs>
</svg>
