<svg width="196" height="54" viewBox="0 0 196 54" fill="none" xmlns="http://www.w3.org/2000/svg">
<path d="M57.7056 34.8951V24.4849C56.1673 28.5564 53.931 29.7285 53.0051 29.8057C56.4237 31.1012 57.5632 33.7384 57.7056 34.8951Z" fill="#8C89A2"/>
<path d="M19.4605 45.9999L6 15.4632H14.76L23.9474 36.2837L19.4605 45.9999Z" fill="#8C89A2"/>
<path d="M35.4849 45.9999L22.0244 15.4632H30.7844L39.9718 36.2837L35.4849 45.9999Z" fill="#8C89A2"/>
<path d="M62.8331 15H54.9277C59.03 17.2209 61.9073 23.0197 62.8331 25.6416V15Z" fill="#8C89A2"/>
<path d="M44.8859 24.2536C44.3731 18.8865 40.399 15.8482 38.4761 15H49.5864C45.9969 18.1462 44.9571 22.48 44.8859 24.2536Z" fill="#8C89A2"/>
<path d="M96.4915 22.0494C95.3127 22.0494 94.298 21.7816 93.4474 21.2461C92.6018 20.7049 91.9502 19.9406 91.4926 18.9532C91.035 17.9602 90.8062 16.7859 90.8062 15.4303C90.8062 14.1082 91.035 12.9478 91.4926 11.9492C91.9502 10.9507 92.5943 10.1725 93.425 9.61457C94.2606 9.0567 95.2405 8.77777 96.3647 8.77777C97.1207 8.77777 97.8246 8.91445 98.4762 9.1878C99.1328 9.45558 99.7048 9.86004 100.192 10.4012C100.685 10.9423 101.068 11.6229 101.341 12.443C101.615 13.2574 101.752 14.2114 101.752 15.3048V16.2838H92.0745V14.0747H98.7597C98.7597 13.5614 98.6602 13.1068 98.4612 12.7107C98.2623 12.3147 97.9862 12.005 97.6331 11.7819C97.2849 11.5531 96.8795 11.4388 96.4169 11.4388C95.9344 11.4388 95.5067 11.5643 95.1336 11.8153C94.7655 12.0608 94.477 12.3927 94.2681 12.8111C94.0592 13.224 93.9522 13.6842 93.9473 14.1918V16.2922C93.9473 16.9282 94.0517 17.4777 94.2606 17.9407C94.4745 18.4037 94.7754 18.7608 95.1634 19.0118C95.5514 19.2628 96.0115 19.3884 96.5438 19.3884C96.8969 19.3884 97.2202 19.3326 97.5137 19.221C97.8072 19.1094 98.0583 18.9421 98.2673 18.7189C98.4762 18.4958 98.6353 18.2224 98.7448 17.8989L101.684 18.1164C101.535 18.9086 101.229 19.6003 100.767 20.1917C100.309 20.7774 99.7172 21.2349 98.991 21.564C98.2698 21.8876 97.4366 22.0494 96.4915 22.0494Z" fill="#8C89A2"/>
<path d="M108.479 22.0494C107.3 22.0494 106.286 21.7816 105.435 21.2461C104.59 20.7049 103.938 19.9406 103.48 18.9532C103.023 17.9602 102.794 16.7859 102.794 15.4303C102.794 14.1082 103.023 12.9478 103.48 11.9492C103.938 10.9507 104.582 10.1725 105.413 9.61457C106.248 9.0567 107.228 8.77777 108.352 8.77777C109.109 8.77777 109.812 8.91445 110.464 9.1878C111.121 9.45558 111.693 9.86004 112.18 10.4012C112.672 10.9423 113.055 11.6229 113.329 12.443C113.603 13.2574 113.739 14.2114 113.739 15.3048V16.2838H104.062V14.0747H110.747C110.747 13.5614 110.648 13.1068 110.449 12.7107C110.25 12.3147 109.974 12.005 109.621 11.7819C109.273 11.5531 108.867 11.4388 108.405 11.4388C107.922 11.4388 107.494 11.5643 107.121 11.8153C106.753 12.0608 106.465 12.3927 106.256 12.8111C106.047 13.224 105.94 13.6842 105.935 14.1918V16.2922C105.935 16.9282 106.04 17.4777 106.248 17.9407C106.462 18.4037 106.763 18.7608 107.151 19.0118C107.539 19.2628 107.999 19.3884 108.532 19.3884C108.885 19.3884 109.208 19.3326 109.501 19.221C109.795 19.1094 110.046 18.9421 110.255 18.7189C110.464 18.4958 110.623 18.2224 110.733 17.8989L113.672 18.1164C113.523 18.9086 113.217 19.6003 112.755 20.1917C112.297 20.7774 111.705 21.2349 110.979 21.564C110.258 21.8876 109.424 22.0494 108.479 22.0494Z" fill="#8C89A2"/>
<path d="M136.935 14.4753V22.0494H133.642V8.94836H136.781V11.2598H136.92C137.182 10.4978 137.623 9.89513 138.242 9.4516C138.86 9.00237 139.61 8.77777 140.491 8.77777C141.316 8.77777 142.034 8.97679 142.648 9.37483C143.261 9.77288 143.738 10.3415 144.078 11.0807C144.418 11.8142 144.588 12.6899 144.588 13.7077V22.0494H141.295V14.3559C141.3 13.5542 141.114 12.9287 140.738 12.4795C140.362 12.0246 139.844 11.7972 139.184 11.7972C138.741 11.7972 138.35 11.9023 138.01 12.1127C137.675 12.3231 137.412 12.6302 137.221 13.0339C137.036 13.4319 136.941 13.9124 136.935 14.4753Z" fill="#8C89A2"/>
<path d="M148.664 18.154L148.672 13.6504H149.159L153.026 8.51235H156.869L151.674 15.3161H150.881L148.664 18.154ZM145.63 22.0494V4H148.979V22.0494H145.63ZM153.175 22.0494L149.623 16.1534L151.855 13.5006L157.097 22.0494H153.175Z" fill="#8C89A2"/>
<path d="M75.3462 22.0494L71 4H74.5081L77.0224 16.5411H77.1485L79.9224 4H82.9261L85.6926 16.5676H85.8261L88.3404 4H91.8485L87.5023 22.0494H84.3724L81.4799 10.2485H81.3612L78.4761 22.0494H75.3462Z" fill="#8C89A2"/>
<path d="M129.076 22.0494V8.77778H132.387V22.0494H129.076ZM130.739 7.41254C130.247 7.41254 129.825 7.24627 129.472 6.91372C129.125 6.5759 128.951 6.17209 128.951 5.70231C128.951 5.23781 129.125 4.83928 129.472 4.50673C129.825 4.16891 130.247 4 130.739 4C131.232 4 131.652 4.16891 131.999 4.50673C132.351 4.83928 132.527 5.23781 132.527 5.70231C132.527 6.17209 132.351 6.5759 131.999 6.91372C131.652 7.24627 131.232 7.41254 130.739 7.41254Z" fill="#8C89A2"/>
<path d="M115 22V4H118.892V18.6476H127V22H115Z" fill="#8C89A2"/>
<path d="M114.299 40.4753V48.0494H111.006V34.9483H114.144V37.2598H114.284C114.546 36.4978 114.987 35.8951 115.605 35.4516C116.224 35.0024 116.974 34.7778 117.855 34.7778C118.679 34.7778 119.398 34.9768 120.011 35.3748C120.625 35.7729 121.101 36.3415 121.441 37.0807C121.781 37.8142 121.952 38.6899 121.952 39.7077V48.0494H118.659V40.3559C118.664 39.5542 118.478 38.9287 118.102 38.4795C117.726 38.0246 117.208 37.7972 116.548 37.7972C116.105 37.7972 115.714 37.9023 115.373 38.1127C115.039 38.3231 114.776 38.6302 114.585 39.0339C114.4 39.4319 114.304 39.9124 114.299 40.4753Z" fill="#8C89A2"/>
<path d="M175.802 40.4753V48.0494H172.509V34.9483H175.647V37.2598H175.786C176.049 36.4978 176.49 35.8951 177.108 35.4516C177.727 35.0024 178.476 34.7778 179.358 34.7778C180.182 34.7778 180.901 34.9768 181.515 35.3748C182.127 35.7729 182.604 36.3415 182.944 37.0807C183.285 37.8142 183.454 38.6899 183.454 39.7077V48.0494H180.161V40.3559C180.167 39.5542 179.981 38.9287 179.605 38.4795C179.229 38.0246 178.711 37.7972 178.051 37.7972C177.608 37.7972 177.217 37.9023 176.876 38.1127C176.542 38.3231 176.278 38.6302 176.088 39.0339C175.903 39.4319 175.807 39.9124 175.802 40.4753Z" fill="#8C89A2"/>
<path d="M127.837 48.006C126.93 48.006 126.109 47.7685 125.373 47.2934C124.642 46.8131 124.061 46.1084 123.631 45.1794C123.206 44.2451 122.994 43.0997 122.994 41.7431C122.994 40.3496 123.214 39.191 123.655 38.2673C124.095 37.3382 124.681 36.6441 125.412 36.1849C126.147 35.7204 126.954 35.4881 127.829 35.4881C128.498 35.4881 129.055 35.6042 129.501 35.8365C129.952 36.0635 130.314 36.3485 130.589 36.6916C130.869 37.0294 131.081 37.362 131.226 37.6892H131.328V31.5926H134.631V48.0494H131.366V45.8603H131.226C131.071 46.1982 130.851 46.5333 130.566 46.8659C130.286 47.1932 129.92 47.465 129.469 47.6814C129.024 47.8978 128.48 48.006 127.837 48.006ZM128.886 45.3219C129.42 45.3219 129.871 45.1741 130.239 44.8785C130.612 44.5776 130.897 44.158 131.094 43.6196C131.296 43.0812 131.397 42.4504 131.397 41.7273C131.397 41.0041 131.299 40.376 131.102 39.8429C130.905 39.3097 130.62 38.898 130.247 38.6077C129.874 38.3174 129.42 38.1722 128.886 38.1722C128.342 38.1722 127.883 38.3227 127.51 38.6235C127.138 38.9244 126.855 39.3414 126.663 39.8745C126.471 40.4076 126.376 41.0253 126.376 41.7273C126.376 42.4346 126.471 43.0601 126.663 43.6038C126.86 44.1422 127.143 44.5645 127.51 44.8706C127.883 45.1715 128.342 45.3219 128.886 45.3219Z" fill="#8C89A2"/>
<path d="M139.563 48.0494C138.782 48.0494 138.088 47.9071 137.477 47.6223C136.867 47.3321 136.384 46.905 136.028 46.3412C135.678 45.7719 135.503 45.0629 135.503 44.2144C135.503 43.4999 135.628 42.8998 135.877 42.4142C136.126 41.9285 136.466 41.5378 136.896 41.2419C137.326 40.946 137.814 40.7228 138.361 40.572C138.913 40.4213 139.491 40.3153 140.096 40.2539C140.807 40.1757 141.38 40.1031 141.815 40.0362C142.251 39.9636 142.566 39.8576 142.763 39.718C142.959 39.5784 143.057 39.3719 143.057 39.0984V39.0481C143.057 38.5178 142.898 38.1075 142.579 37.8172C142.267 37.527 141.821 37.3819 141.243 37.3819C140.632 37.3819 140.146 37.5242 139.786 37.8089C139.425 38.088 139.186 38.4397 139.069 38.8639L135.933 38.596C136.092 37.8145 136.405 37.139 136.872 36.5697C137.339 35.9947 137.942 35.5537 138.679 35.2467C139.422 34.9341 140.282 34.7778 141.258 34.7778C141.937 34.7778 142.588 34.8615 143.209 35.029C143.835 35.1964 144.389 35.456 144.872 35.8077C145.361 36.1593 145.745 36.6115 146.027 37.1642C146.308 37.7112 146.448 38.3671 146.448 39.1319V47.8066H143.233V46.0231H143.137C142.941 46.425 142.678 46.7794 142.349 47.0864C142.02 47.3879 141.625 47.6251 141.163 47.7982C140.701 47.9657 140.168 48.0494 139.563 48.0494ZM140.534 45.5877C141.032 45.5877 141.473 45.4843 141.855 45.2778C142.238 45.0657 142.537 44.781 142.755 44.4237C142.972 44.0665 143.081 43.6618 143.081 43.2096V41.8448C142.975 41.9174 142.829 41.9844 142.644 42.0458C142.463 42.1016 142.258 42.1546 142.031 42.2048C141.802 42.2495 141.574 42.2914 141.346 42.3304C141.117 42.3639 140.911 42.3947 140.725 42.4225C140.327 42.484 139.979 42.5816 139.682 42.7156C139.385 42.8496 139.154 43.031 138.989 43.2599C138.825 43.4831 138.743 43.7623 138.743 44.0972C138.743 44.5828 138.91 44.9541 139.244 45.2108C139.584 45.462 140.014 45.5877 140.534 45.5877Z" fill="#8C89A2"/>
<path d="M106.659 42.3006V34.7778H109.964V48.0494H106.791V45.4991H106.667C106.398 46.2667 105.95 46.8837 105.325 47.35C104.704 47.8162 103.946 48.0494 103.052 48.0494C102.255 48.0494 101.555 47.8504 100.95 47.4523C100.345 47.0543 99.8713 46.4885 99.5301 45.755C99.1939 45.0215 99.0232 44.143 99.0181 43.1195V34.7778H102.323V42.4712C102.328 43.2445 102.517 43.8558 102.889 44.305C103.261 44.7542 103.76 44.9788 104.386 44.9788C104.784 44.9788 105.157 44.8793 105.503 44.6803C105.85 44.4756 106.129 44.1742 106.341 43.7762C106.558 43.3781 106.664 42.8863 106.659 42.3006Z" fill="#8C89A2"/>
<path d="M155.434 48.0494V34.7778H158.745V48.0494H155.434ZM157.097 33.4126C156.605 33.4126 156.182 33.2463 155.83 32.9137C155.483 32.5759 155.309 32.1721 155.309 31.7023C155.309 31.2378 155.483 30.8393 155.83 30.5067C156.182 30.1689 156.605 30 157.097 30C157.589 30 158.009 30.1689 158.357 30.5067C158.709 30.8393 158.885 31.2378 158.885 31.7023C158.885 32.1721 158.709 32.5759 158.357 32.9137C158.009 33.2463 157.589 33.4126 157.097 33.4126Z" fill="#8C89A2"/>
<path d="M154.16 34.7375V37.963H146.97V34.7375H154.16ZM148.602 31.5926H151.914V43.8304C151.914 44.1665 151.96 44.4286 152.054 44.6167C152.147 44.799 152.277 44.9272 152.442 45.0012C152.613 45.0753 152.81 45.1123 153.034 45.1123C153.189 45.1123 153.344 45.098 153.499 45.0696C153.873 45.0012 154.267 44.7713 154.267 44.7713V47.6362C154.267 47.6362 153.938 47.8295 153.678 47.8983C153.378 47.978 153.013 48.0265 152.582 48.0436C151.784 48.0778 151.085 47.961 150.483 47.6932C149.887 47.4254 149.424 47.0095 149.092 46.4455C148.76 45.8814 148.597 45.1693 148.602 44.309V31.5926Z" fill="#8C89A2"/>
<path d="M92.2424 48.0494C91.0644 48.0494 90.0456 47.7622 89.1861 47.1878C88.3317 46.6077 87.6719 45.8012 87.2067 44.7685C86.7416 43.73 86.509 42.5261 86.509 41.1569C86.509 39.7761 86.7416 38.5693 87.2067 37.5366C87.6719 36.498 88.3317 35.6916 89.1861 35.1172C90.0456 34.537 91.0644 34.2469 92.2424 34.2469C93.4204 34.2469 94.4366 34.537 95.291 35.1172C96.1505 35.6916 96.8129 36.498 97.278 37.5366C97.7431 38.5693 97.9757 39.7761 97.9757 41.1569C97.9757 42.5261 97.7431 43.73 97.278 44.7685C96.8129 45.8012 96.1505 46.6077 95.291 47.1878C94.4366 47.7622 93.4204 48.0494 92.2424 48.0494ZM92.2575 45.1775C92.7934 45.1775 93.2409 45.0035 93.5999 44.6554C93.9588 44.3015 94.2293 43.8199 94.4113 43.2107C94.5984 42.6015 94.6919 41.9082 94.6919 41.1308C94.6919 40.3533 94.5984 39.66 94.4113 39.0508C94.2293 38.4416 93.9588 37.9601 93.5999 37.6062C93.2409 37.2523 92.7934 37.0753 92.2575 37.0753C91.7166 37.0753 91.2615 37.2523 90.8925 37.6062C90.5284 37.9601 90.2529 38.4416 90.0658 39.0508C89.8838 39.66 89.7928 40.3533 89.7928 41.1308C89.7928 41.9082 89.8838 42.6015 90.0658 43.2107C90.2529 43.8199 90.5284 44.3015 90.8925 44.6554C91.2615 45.0035 91.7166 45.1775 92.2575 45.1775Z" fill="#8C89A2"/>
<path d="M165.733 48.0494C164.555 48.0494 163.536 47.7622 162.677 47.1878C161.823 46.6077 161.163 45.8012 160.698 44.7685C160.232 43.73 160 42.5261 160 41.1569C160 39.7761 160.232 38.5693 160.698 37.5366C161.163 36.498 161.823 35.6916 162.677 35.1172C163.536 34.537 164.555 34.2469 165.733 34.2469C166.911 34.2469 167.928 34.537 168.782 35.1172C169.641 35.6916 170.304 36.498 170.769 37.5366C171.234 38.5693 171.467 39.7761 171.467 41.1569C171.467 42.5261 171.234 43.73 170.769 44.7685C170.304 45.8012 169.641 46.6077 168.782 47.1878C167.928 47.7622 166.911 48.0494 165.733 48.0494ZM165.748 45.1775C166.284 45.1775 166.732 45.0035 167.091 44.6554C167.45 44.3015 167.72 43.8199 167.902 43.2107C168.089 42.6015 168.183 41.9082 168.183 41.1308C168.183 40.3533 168.089 39.66 167.902 39.0508C167.72 38.4416 167.45 37.9601 167.091 37.6062C166.732 37.2523 166.284 37.0753 165.748 37.0753C165.207 37.0753 164.752 37.2523 164.383 37.6062C164.02 37.9601 163.744 38.4416 163.557 39.0508C163.375 39.66 163.284 40.3533 163.284 41.1308C163.284 41.9082 163.375 42.6015 163.557 43.2107C163.744 43.8199 164.02 44.3015 164.383 44.6554C164.752 45.0035 165.207 45.1775 165.748 45.1775Z" fill="#8C89A2"/>
<path d="M74 48.0494V30H86.5091V33.1463H77.9944V37.4471H85.6789V40.5934H77.9944V48.0494H74Z" fill="#8C89A2"/>
</svg>
